<svg width="40" height="40" viewBox="0 0 40 40" fill="none" xmlns="http://www.w3.org/2000/svg">
<path fill-rule="evenodd" clip-rule="evenodd" d="M39 20C39 30.4934 30.4934 39 20 39C9.50659 39 1 30.4934 1 20C1 9.50659 9.50659 1 20 1C30.4934 1 39 9.50659 39 20ZM40 20C40 31.0457 31.0457 40 20 40C8.9543 40 0 31.0457 0 20C0 8.9543 8.9543 0 20 0C31.0457 0 40 8.9543 40 20ZM16.9396 2.21999C16.8028 2.04111 15.9505 2.3045 15.6559 2.39887C15.6386 2.40442 15.6023 2.41413 15.5485 2.42852C14.6866 2.65917 9.33921 4.09002 5.91221 8.76493C2.49569 13.4256 2.24658 16.5977 2.12602 18.1328L2.12601 18.1329C2.1181 18.2337 2.11074 18.3274 2.10308 18.414C1.78742 21.9811 2.97642 26.4636 4.07074 28.4944C4.82486 29.8939 6.72238 32.4542 7.79567 33.2821C8.16395 33.5662 8.89669 33.6666 9.31089 33.482C10.279 33.0506 11.1431 32.8483 12.5623 32.7665C13.6472 32.704 14.3525 32.8258 15.3601 32.9998L15.3602 32.9998C15.4558 33.0163 15.5542 33.0333 15.6559 33.0506C16.8364 33.252 17.5619 33.496 18.4806 33.8051L18.4808 33.8052C18.8122 33.9166 19.1687 34.0366 19.5808 34.166C20.1645 34.3494 20.6594 34.5184 21.1291 34.6788L21.1293 34.6789C21.9936 34.9741 22.7726 35.2402 23.8634 35.5129C23.9743 35.5406 24.0824 35.568 24.1881 35.5947C25.4418 35.9122 26.3667 36.1464 27.8514 35.9232C28.4235 35.8372 28.5919 35.7144 28.9398 35.4606C29.0286 35.3959 29.129 35.3226 29.2509 35.2393C29.4508 35.1025 29.8027 34.6606 29.8191 34.5132C29.8541 34.1977 29.8085 33.8924 29.4718 33.6399C29.1351 33.3873 29.1141 33.219 29.1667 33.0506C29.2238 32.8678 29.4613 32.8612 29.6191 32.8612C29.777 32.8612 30.2505 32.9033 30.4188 33.3032C30.4919 33.4766 30.5022 33.6988 30.5107 33.8839C30.522 34.1257 30.5302 34.3044 30.6714 34.2291C30.8397 34.1394 30.8924 34.0292 30.9344 33.8714C30.9765 33.7135 31.0186 33.24 30.8713 33.0085C30.724 32.777 30.503 32.4403 30.3662 32.2509C30.2294 32.0615 30.0821 31.809 30.0821 31.4512C30.0821 31.0935 30.3347 30.9882 30.4188 30.9882L30.4352 30.9881C30.5186 30.9868 30.6333 30.9851 30.6924 31.2513C30.7248 31.397 30.7129 31.5123 30.7036 31.6028C30.6947 31.6887 30.6881 31.7523 30.724 31.7985C30.7977 31.8932 30.9344 31.9247 31.0186 31.7669C31.1028 31.6091 31.1659 31.3144 31.0818 31.0198C30.9976 30.7252 30.8924 30.5884 30.6398 30.3569C30.3873 30.1254 29.8401 29.957 29.5455 29.8729C29.5073 29.862 29.4712 29.8521 29.4373 29.8428C29.2093 29.7806 29.077 29.7444 29.0404 29.5888C28.9983 29.4099 29.0088 29.3257 29.1351 29.1468C29.2614 28.9679 29.8717 28.6944 30.6398 28.747C31.408 28.7996 31.8078 28.8838 32.2603 29.2626C32.7127 29.6414 33.1231 30.1675 33.323 30.7147C33.523 31.2618 33.6703 32.3246 33.6703 32.3246C33.6703 32.3246 34.7225 31.3039 36.0483 29.21C37.3742 27.116 38.479 22.8649 38.479 21.1708C38.479 21.0424 38.4814 20.8962 38.4841 20.7331C38.517 18.7447 38.5913 14.2534 34.8277 9.07007C30.7556 3.46164 24.2948 2.19895 23.937 2.13582C23.5793 2.07269 23.3057 2.12529 23.232 2.22C23.1584 2.3147 23.1268 2.44097 23.232 2.77768C23.2438 2.8154 23.2551 2.85049 23.2657 2.88355L23.2659 2.88409C23.3499 3.14578 23.3933 3.28097 23.3372 3.59843C23.2741 3.95619 22.6322 4.45074 22.3797 4.62962C22.1272 4.8085 21.4222 5.31358 21.2749 5.71343C21.1275 6.11328 21.2959 6.69201 21.5064 7.155C21.7168 7.61798 21.8325 7.97574 21.7905 8.44925C21.7484 8.92276 21.2854 9.18582 20.9066 9.35418C20.5278 9.52254 19.949 9.50149 19.6228 9.46992C19.2966 9.43836 18.7074 9.04903 18.5496 8.57552C18.4026 8.13463 18.5932 7.71198 18.7985 7.25661L18.8442 7.155C19.0652 6.66045 19.3282 6.01858 19.1599 5.68186C18.9915 5.34515 18.6127 5.05052 17.9813 4.69276L17.9769 4.69024C17.3487 4.33424 17.0651 4.17355 16.9396 3.59843C16.8702 3.28034 17.0028 2.76716 17.0028 2.76716C17.0028 2.76716 17.0764 2.39887 16.9396 2.21999ZM26.9803 11.0826H25.9831H24.986C24.986 10.5319 25.4324 10.0854 25.9831 10.0854C26.5338 10.0854 26.9803 10.5319 26.9803 11.0826ZM26.9803 11.0826V24.0455H24.9944V24.0456H24.986V11.0826H26.9803ZM15.007 24.0456H15.0149V11.0826H13.0206V17.5641V24.0455H15.007V24.0456ZM15.007 24.0456C15.007 24.7013 15.1362 25.3507 15.3871 25.9565C15.6381 26.5624 16.0059 27.1129 16.4696 27.5766C16.9333 28.0403 17.4838 28.4081 18.0897 28.6591C18.6955 28.91 19.3449 29.0392 20.0007 29.0392C20.6565 29.0392 21.3058 28.91 21.9117 28.6591C22.5176 28.4081 23.0681 28.0403 23.5318 27.5766C23.9955 27.1129 24.3633 26.5624 24.6143 25.9565C24.8652 25.3507 24.9944 24.7013 24.9944 24.0456H26.9803V24.0455H26.9807C26.9807 24.7241 26.8818 25.3978 26.6881 26.0455C26.6201 26.2727 26.5405 26.4967 26.4494 26.7166C26.0986 27.5635 25.5845 28.333 24.9363 28.9811C24.2882 29.6293 23.5187 30.1434 22.6718 30.4942C21.825 30.845 20.9173 31.0255 20.0007 31.0255C19.0841 31.0255 18.1764 30.845 17.3295 30.4942C16.4827 30.1434 15.7132 29.6293 15.065 28.9811C14.4169 28.333 13.9027 27.5635 13.552 26.7166C13.4609 26.4967 13.3812 26.2727 13.3133 26.0455C13.1196 25.3978 13.0206 24.7241 13.0206 24.0456H15.007ZM23.9886 23.0484C23.9886 25.2512 22.2028 27.037 20 27.037C17.7971 27.037 16.0114 25.2512 16.0114 23.0484C16.0114 20.8455 17.7971 19.0598 20 19.0598C22.2028 19.0598 23.9886 20.8455 23.9886 23.0484ZM27.3949 33.8177C27.3949 33.8177 27.184 33.558 26.5729 33.5581C26.3717 33.5581 26.2258 33.6004 26.1106 33.6337C25.9402 33.6831 25.837 33.7129 25.7217 33.5581C25.4527 33.1969 25.8992 32.8205 26.3977 32.8205C26.8963 32.8205 27.3949 33.5423 27.3949 33.8177ZM14.0178 11.0826H15.0149C15.0149 10.5319 14.5685 10.0854 14.0178 10.0854C13.4671 10.0854 13.0206 10.5319 13.0206 11.0826H14.0178Z" fill="#182F73"/>
</svg>
