<svg width="32" height="32" viewBox="0 0 32 32" fill="none" xmlns="http://www.w3.org/2000/svg">
<path fill-rule="evenodd" clip-rule="evenodd" d="M31 16C31 24.2843 24.2843 31 16 31C7.71573 31 1 24.2843 1 16C1 7.71573 7.71573 1 16 1C24.2843 1 31 7.71573 31 16ZM32 16C32 24.8366 24.8366 32 16 32C7.16344 32 0 24.8366 0 16C0 7.16344 7.16344 0 16 0C24.8366 0 32 7.16344 32 16ZM13.4399 2.08569C13.3348 1.9485 12.6799 2.15049 12.4535 2.22287C12.4402 2.22712 12.4123 2.23457 12.371 2.24561C11.7087 2.42248 7.59987 3.5198 4.96661 7.10494C2.34139 10.6791 2.14998 13.1118 2.05734 14.2891L2.05734 14.2892C2.05126 14.3664 2.0456 14.4383 2.03972 14.5047C1.79717 17.2403 2.71078 20.6779 3.55164 22.2353C4.1311 23.3086 5.58913 25.272 6.41383 25.9069C6.69681 26.1248 7.25984 26.2018 7.57811 26.0603C8.32195 25.7294 8.98593 25.5743 10.0765 25.5115C10.9101 25.4636 11.452 25.557 12.2263 25.6904C12.2998 25.7031 12.3754 25.7161 12.4535 25.7294C13.3606 25.8838 13.9181 26.071 14.624 26.308L14.624 26.308L14.6242 26.3081C14.8788 26.3936 15.1527 26.4855 15.4693 26.5848C15.918 26.7254 16.2982 26.8551 16.6592 26.9781C17.3233 27.2045 17.9219 27.4086 18.76 27.6177C18.8453 27.639 18.9283 27.6599 19.0096 27.6805C19.9729 27.924 20.6835 28.1036 21.8244 27.9324C22.264 27.8664 22.3934 27.7722 22.6607 27.5776C22.7289 27.528 22.8061 27.4718 22.8997 27.4079C23.0533 27.303 23.3237 26.9641 23.3363 26.8511C23.3633 26.6091 23.3282 26.375 23.0695 26.1813C22.8108 25.9876 22.7946 25.8585 22.835 25.7294C22.8789 25.5892 23.0614 25.5842 23.1827 25.5842C23.304 25.5842 23.6678 25.6164 23.7972 25.9231C23.8533 26.0561 23.8612 26.2265 23.8678 26.3685C23.8764 26.5539 23.8828 26.6909 23.9912 26.6332C24.1206 26.5643 24.161 26.4799 24.1934 26.3588C24.2257 26.2378 24.258 25.8747 24.1449 25.6971C24.0317 25.5196 23.8619 25.2614 23.7568 25.1161C23.6516 24.9709 23.5385 24.7772 23.5385 24.5029C23.5385 24.2285 23.7325 24.1478 23.7972 24.1478L23.8097 24.1477C23.8739 24.1467 23.9619 24.1453 24.0074 24.3495C24.0323 24.4613 24.0231 24.5497 24.016 24.6191C24.0091 24.685 24.0041 24.7338 24.0317 24.7691C24.0883 24.8418 24.1934 24.866 24.258 24.7449C24.3227 24.6239 24.3712 24.3979 24.3066 24.172C24.2419 23.9461 24.161 23.8412 23.967 23.6636C23.7729 23.4861 23.3525 23.357 23.1261 23.2924C23.0968 23.284 23.069 23.2765 23.0429 23.2694C22.8678 23.2216 22.7662 23.1939 22.738 23.0745C22.7057 22.9374 22.7138 22.8728 22.8108 22.7356C22.9078 22.5984 23.3768 22.3886 23.967 22.429C24.5572 22.4693 24.8644 22.5339 25.2121 22.8244C25.5598 23.1149 25.8751 23.5184 26.0287 23.938C26.1824 24.3576 26.2955 25.1726 26.2955 25.1726C26.2955 25.1726 27.1041 24.3899 28.1228 22.784C29.1416 21.1782 29.9905 17.9181 29.9905 16.6189C29.9905 16.5205 29.9924 16.4083 29.9944 16.2833V16.2832C30.0197 14.7584 30.0768 11.314 27.1849 7.33895C24.0559 3.03789 19.0916 2.06955 18.8167 2.02113C18.5418 1.97272 18.3315 2.01306 18.2749 2.08569C18.2183 2.15832 18.1941 2.25515 18.2749 2.51337C18.284 2.54237 18.2927 2.56934 18.3008 2.59475L18.3009 2.59498C18.3655 2.79566 18.3988 2.89934 18.3558 3.1428C18.3073 3.41716 17.8141 3.79643 17.62 3.93361C17.426 4.07079 16.8843 4.45813 16.7711 4.76477C16.6579 5.07141 16.7872 5.51524 16.9489 5.8703C17.1106 6.22536 17.1996 6.49972 17.1672 6.86285C17.1349 7.22598 16.7791 7.42772 16.4881 7.55683C16.197 7.68594 15.7523 7.6698 15.5017 7.64559C15.251 7.62139 14.7983 7.32281 14.677 6.95968C14.564 6.62157 14.7105 6.29744 14.8683 5.94822L14.9034 5.8703C15.0732 5.49103 15.2753 4.99879 15.1459 4.74056C15.0166 4.48234 14.7255 4.25639 14.2404 3.98203L14.237 3.9801C13.7542 3.70709 13.5363 3.58385 13.4399 3.1428C13.3866 2.89886 13.4884 2.5053 13.4884 2.5053C13.4884 2.5053 13.545 2.22287 13.4399 2.08569ZM21.5843 8.86605H20.7865H19.9888C19.9888 8.42548 20.346 8.06833 20.7865 8.06833C21.2271 8.06833 21.5843 8.42548 21.5843 8.86605ZM19.9888 8.8661H21.5843V19.2364H19.9953V19.2365H19.9888V8.8661ZM12.0054 19.2365C12.0054 19.7611 12.1087 20.2805 12.3095 20.7652C12.5102 21.2499 12.8045 21.6903 13.1755 22.0613C13.5464 22.4322 13.9868 22.7265 14.4715 22.9273C14.9562 23.128 15.4757 23.2314 16.0003 23.2314C16.525 23.2314 17.0445 23.128 17.5292 22.9273C18.0138 22.7265 18.4542 22.4322 18.8252 22.0613C19.1962 21.6903 19.4904 21.2499 19.6912 20.7652C19.892 20.2805 19.9953 19.7611 19.9953 19.2365H21.5843V19.2364H21.5844C21.5844 19.9205 21.4587 20.5984 21.2139 21.2364C21.1964 21.2822 21.1781 21.3279 21.1593 21.3733C20.8787 22.0508 20.4674 22.6664 19.9489 23.1849C19.4303 23.7034 18.8148 24.1148 18.1373 24.3954C17.4598 24.676 16.7337 24.8204 16.0003 24.8204C15.267 24.8204 14.5409 24.676 13.8634 24.3954C13.1859 24.1148 12.5704 23.7034 12.0518 23.1849C11.5333 22.6664 11.122 22.0508 10.8414 21.3733C10.8225 21.3279 10.8043 21.2822 10.7867 21.2364C10.542 20.5984 10.4163 19.9206 10.4163 19.2365H12.0054ZM12.0054 19.2365V19.2364H10.4163V14.0513V8.8661H12.0117V19.2365H12.0054ZM19.1909 18.4387C19.1909 20.201 17.7623 21.6296 16 21.6296C14.2377 21.6296 12.8091 20.201 12.8091 18.4387C12.8091 16.6764 14.2377 15.2478 16 15.2478C17.7623 15.2478 19.1909 16.6764 19.1909 18.4387ZM21.9162 27.0541C21.9162 27.0541 21.7474 26.8464 21.2586 26.8465C21.0976 26.8465 20.9808 26.8803 20.8887 26.907C20.7524 26.9464 20.6699 26.9703 20.5776 26.8465C20.3624 26.5575 20.7196 26.2564 21.1184 26.2564C21.5173 26.2564 21.9162 26.8338 21.9162 27.0541ZM11.214 8.86605H12.0117C12.0117 8.42548 11.6546 8.06833 11.214 8.06833C10.7734 8.06833 10.4163 8.42548 10.4163 8.86605H11.214Z" fill="#182F73"/>
</svg>
