<svg width="56" height="56" viewBox="0 0 56 56" fill="none" xmlns="http://www.w3.org/2000/svg">
<path fill-rule="evenodd" clip-rule="evenodd" d="M55 28C55 42.9117 42.9117 55 28 55C13.0883 55 1 42.9117 1 28C1 13.0883 13.0883 1 28 1C42.9117 1 55 13.0883 55 28ZM56 28C56 43.464 43.464 56 28 56C12.536 56 0 43.464 0 28C0 12.536 12.536 0 28 0C43.464 0 56 12.536 56 28ZM23.7152 3.10798C23.5237 2.85755 22.3304 3.22629 21.918 3.35842C21.8937 3.36618 21.8429 3.37978 21.7676 3.39993C20.5609 3.72282 13.0746 5.72603 8.27682 12.2709C3.49367 18.7958 3.14492 23.2368 2.97614 25.386L2.97614 25.386C2.96506 25.5271 2.95476 25.6583 2.94402 25.7796C2.5021 30.7735 4.16671 37.049 5.69876 39.8922C6.75452 41.8515 9.41105 45.4358 10.9136 46.595C11.4292 46.9927 12.4551 47.1333 13.035 46.8749C14.3903 46.2709 15.6 45.9876 17.587 45.8731C19.1059 45.7856 20.0932 45.9561 21.504 46.1997C21.6379 46.2228 21.7756 46.2466 21.918 46.2709C23.5707 46.5528 24.5864 46.8945 25.8726 47.3272C26.3366 47.4832 26.8358 47.6512 27.4128 47.8324C28.2301 48.0891 28.9229 48.3257 29.5804 48.5503L29.5806 48.5504C30.7907 48.9637 31.8813 49.3362 33.4085 49.718C33.5638 49.7568 33.7151 49.7952 33.8631 49.8326L33.8631 49.8327C35.6183 50.2771 36.913 50.605 38.9916 50.2925C39.7926 50.1721 40.0284 50.0002 40.5155 49.6449C40.6398 49.5542 40.7804 49.4517 40.9509 49.335C41.2308 49.1435 41.7235 48.5248 41.7464 48.3185C41.7955 47.8768 41.7317 47.4494 41.2603 47.0958C40.7889 46.7423 40.7594 46.5066 40.8331 46.2709C40.9131 46.0149 41.2455 46.0057 41.4665 46.0057C41.6875 46.0057 42.3504 46.0646 42.5861 46.6244C42.6883 46.8672 42.7028 47.1783 42.7148 47.4375C42.7305 47.776 42.7421 48.0262 42.9397 47.9208C43.1754 47.7951 43.249 47.6409 43.3079 47.4199C43.3669 47.199 43.4258 46.536 43.2196 46.212C43.0133 45.8879 42.704 45.4165 42.5124 45.1513C42.3209 44.8861 42.1147 44.5326 42.1147 44.0317C42.1147 43.5308 42.4683 43.3835 42.5861 43.3835L42.609 43.3833C42.7258 43.3815 42.8863 43.3791 42.9691 43.7518C43.0145 43.9558 42.9978 44.1172 42.9847 44.2439C42.9723 44.3642 42.9631 44.4533 43.0133 44.5178C43.1164 44.6504 43.3079 44.6946 43.4258 44.4737C43.5436 44.2527 43.632 43.8402 43.5142 43.4277C43.3963 43.0152 43.249 42.8237 42.8955 42.4996C42.5419 42.1756 41.7759 41.9399 41.3634 41.822C41.3099 41.8067 41.2594 41.7929 41.2119 41.7799C40.8928 41.6928 40.7076 41.6422 40.6563 41.4243C40.5974 41.1738 40.6121 41.056 40.7889 40.8055C40.9656 40.5551 41.8201 40.1721 42.8955 40.2458C43.9709 40.3194 44.5306 40.4373 45.1641 40.9676C45.7975 41.4979 46.3721 42.2345 46.652 43.0005C46.9319 43.7665 47.1381 45.2544 47.1381 45.2544C47.1381 45.2544 48.6112 43.8255 50.4674 40.8939C52.3235 37.9624 53.8703 32.0109 53.8703 29.6392C53.8703 29.4594 53.8737 29.2547 53.8775 29.0264C53.9235 26.2426 54.0275 19.9548 48.7586 12.6981C43.0575 4.84629 34.0124 3.07853 33.5116 2.99014C33.0107 2.90176 32.6277 2.9754 32.5246 3.10799C32.4214 3.24058 32.3772 3.41735 32.5246 3.88875C32.5411 3.94184 32.557 3.9912 32.5719 4.03771C32.6895 4.40408 32.7503 4.59334 32.6719 5.03779C32.5835 5.53866 31.6849 6.23103 31.3313 6.48147C30.9778 6.7319 29.9908 7.43901 29.7845 7.9988C29.5783 8.55859 29.814 9.36881 30.1086 10.017C30.4032 10.6652 30.5653 11.166 30.5064 11.8289C30.4474 12.4919 29.7992 12.8601 29.2689 13.0958C28.7386 13.3315 27.9284 13.3021 27.4717 13.2579C27.015 13.2137 26.1901 12.6686 25.9691 12.0057C25.7633 11.3885 26.0302 10.7968 26.3176 10.1593C26.3389 10.1121 26.3603 10.0647 26.3816 10.017C26.6909 9.32462 27.0592 8.42601 26.8235 7.9546C26.5878 7.4832 26.0575 7.07072 25.1736 6.56985L25.1674 6.56634C24.2879 6.06793 23.8909 5.84296 23.7152 5.03779C23.6181 4.59247 23.8036 3.87402 23.8036 3.87402C23.8036 3.87402 23.9067 3.35842 23.7152 3.10798ZM37.7721 15.5156H36.3761H34.9801C34.9801 14.7446 35.6051 14.1196 36.3761 14.1196C37.1471 14.1196 37.7721 14.7446 37.7721 15.5156ZM37.7721 15.5157V33.6637H36.9919H35.7728H34.9919V33.6638H34.9801V15.5157H37.7721ZM21.0095 33.6638H21.0206V15.5157H18.2286V24.5897V33.6637H19.0095H20.2286H21.0095V33.6638ZM21.0095 33.6638C21.0095 34.5819 21.1903 35.4909 21.5417 36.3391C21.893 37.1873 22.408 37.958 23.0572 38.6072C23.7063 39.2564 24.4771 39.7714 25.3253 40.1227C26.1735 40.474 27.0826 40.6549 28.0007 40.6549C28.9188 40.6549 29.8279 40.474 30.6761 40.1227C31.5243 39.7714 32.295 39.2564 32.9442 38.6072C33.5934 37.958 34.1084 37.1873 34.4597 36.3391C34.811 35.4909 34.9919 34.5819 34.9919 33.6638H37.7721V33.6637H37.7728C37.7728 34.3373 37.7031 35.0075 37.5659 35.6637C37.4417 36.2576 37.2622 36.84 37.0289 37.4033C36.5378 38.5889 35.818 39.6662 34.9106 40.5736C34.0032 41.481 32.9259 42.2008 31.7403 42.6919C30.5547 43.183 29.284 43.4358 28.0007 43.4358C26.7174 43.4358 25.4467 43.183 24.2611 42.6919C23.0755 42.2008 21.9982 41.481 21.0908 40.5736C20.1834 39.6662 19.4635 38.5889 18.9725 37.4033C18.7391 36.84 18.5596 36.2576 18.4355 35.6637C18.2983 35.0075 18.2286 34.3374 18.2286 33.6638H21.0095ZM33.5837 32.2677C33.5837 35.3517 31.0836 37.8517 27.9997 37.8517C24.9157 37.8517 22.4156 35.3517 22.4156 32.2677C22.4156 29.1837 24.9157 26.6837 27.9997 26.6837C31.0836 26.6837 33.5837 29.1837 33.5837 32.2677ZM38.3523 47.3447C38.3523 47.3447 38.057 46.9812 37.2015 46.9813C36.9198 46.9814 36.7155 47.0405 36.5542 47.0872C36.3157 47.1563 36.1713 47.1981 36.0098 46.9813C35.6331 46.4757 36.2583 45.9487 36.9563 45.9487C37.6543 45.9487 38.3523 46.9592 38.3523 47.3447ZM19.6246 15.5156H21.0206C21.0206 14.7446 20.3956 14.1196 19.6246 14.1196C18.8536 14.1196 18.2286 14.7446 18.2286 15.5156H19.6246Z" fill="#182F73"/>
</svg>
