<svg width="112" height="24" viewBox="0 0 112 24" fill="none" xmlns="http://www.w3.org/2000/svg">
<path fill-rule="evenodd" clip-rule="evenodd" d="M23 12C23 18.0751 18.0751 23 12 23C5.92487 23 1 18.0751 1 12C1 5.92487 5.92487 1 12 1C18.0751 1 23 5.92487 23 12ZM24 12C24 18.6274 18.6274 24 12 24C5.37258 24 0 18.6274 0 12C0 5.37258 5.37258 0 12 0C18.6274 0 24 5.37258 24 12ZM10.1714 2.06262C10.0963 1.96237 9.62851 2.10997 9.4668 2.16287C9.45731 2.16597 9.43737 2.17142 9.40786 2.17948C8.93478 2.30874 5.9999 3.11062 4.11901 5.73053C2.24385 8.34244 2.10713 10.1202 2.04096 10.9805C2.03661 11.037 2.03258 11.0895 2.02837 11.1381C1.85512 13.1371 2.5077 15.6492 3.10832 16.7873C3.52221 17.5716 4.56366 19.0065 5.15273 19.4705C5.35487 19.6297 5.75703 19.686 5.98436 19.5825C6.51568 19.3407 6.98995 19.2273 7.7689 19.1815C8.36436 19.1465 8.75143 19.2147 9.3045 19.3122L9.4668 19.3407C10.1147 19.4536 10.5129 19.5903 11.0171 19.7635L11.0172 19.7636C11.1991 19.826 11.3948 19.8933 11.621 19.9658C11.9414 20.0686 12.213 20.1633 12.4708 20.2532C12.9452 20.4187 13.3728 20.5678 13.9715 20.7206C14.0324 20.7362 14.0917 20.7515 14.1497 20.7665C14.8378 20.9444 15.3454 21.0757 16.1603 20.9506C16.4743 20.9024 16.5667 20.8336 16.7577 20.6913L16.7577 20.6913C16.8064 20.6551 16.8615 20.614 16.9284 20.5673C17.0381 20.4906 17.2312 20.243 17.2402 20.1604C17.2595 19.9836 17.2345 19.8125 17.0497 19.671C16.8648 19.5294 16.8533 19.4351 16.8822 19.3407C16.9135 19.2383 17.0439 19.2346 17.1305 19.2346C17.2171 19.2346 17.477 19.2582 17.5694 19.4823C17.6095 19.5794 17.6151 19.704 17.6199 19.8077C17.626 19.9432 17.6306 20.0434 17.708 20.0012C17.8004 19.9509 17.8293 19.8891 17.8524 19.8007C17.8755 19.7122 17.8986 19.4469 17.8178 19.3171C17.7369 19.1874 17.6156 18.9987 17.5405 18.8926C17.4655 18.7864 17.3846 18.6449 17.3846 18.4444C17.3846 18.2439 17.5232 18.1849 17.5694 18.1849L17.5784 18.1848C17.6242 18.1841 17.6871 18.1831 17.7196 18.3323C17.7373 18.414 17.7308 18.4786 17.7257 18.5293C17.7208 18.5775 17.7172 18.6131 17.7369 18.639C17.7773 18.6921 17.8524 18.7098 17.8986 18.6213C17.9448 18.5328 17.9795 18.3677 17.9333 18.2026C17.8871 18.0375 17.8293 17.9608 17.6907 17.8311C17.5521 17.7014 17.2518 17.607 17.0901 17.5598C17.0691 17.5537 17.0493 17.5482 17.0307 17.543C16.9056 17.5081 16.833 17.4879 16.8129 17.4006C16.7898 17.3004 16.7955 17.2532 16.8648 17.153C16.9341 17.0527 17.2691 16.8994 17.6907 16.9289C18.1123 16.9584 18.3317 17.0055 18.5801 17.2178C18.8284 17.4301 19.0537 17.725 19.1634 18.0316C19.2731 18.3382 19.354 18.9338 19.354 18.9338C19.354 18.9338 19.9315 18.3618 20.6592 17.1883C21.3868 16.0148 21.9932 13.6325 21.9932 12.6831C21.9932 12.6111 21.9945 12.5292 21.996 12.4378V12.4378C22.0141 11.3234 22.0548 8.80639 19.9892 5.90154C17.7542 2.75846 14.2083 2.05083 14.0119 2.01544C13.8155 1.98006 13.6654 2.00955 13.6249 2.06262C13.5845 2.11569 13.5672 2.18646 13.6249 2.37516C13.6315 2.39641 13.6377 2.41617 13.6435 2.43479C13.6896 2.58145 13.7134 2.65721 13.6827 2.83512C13.648 3.03562 13.2958 3.31277 13.1572 3.41302C13.0186 3.51327 12.6316 3.79633 12.5508 4.02041C12.4699 4.2445 12.5623 4.56883 12.6778 4.82829C12.7933 5.08776 12.8568 5.28826 12.8337 5.55362C12.8106 5.81898 12.5565 5.96641 12.3486 6.06076C12.1407 6.15511 11.8231 6.14332 11.6441 6.12563C11.465 6.10794 11.1416 5.88975 11.055 5.62438C10.9743 5.3773 11.0789 5.14044 11.1916 4.88525L11.2167 4.82829C11.338 4.55114 11.4823 4.19142 11.3899 4.00272C11.2975 3.81402 11.0896 3.6489 10.7431 3.4484L10.7407 3.447C10.3959 3.24749 10.2402 3.15743 10.1714 2.83512C10.1333 2.65686 10.206 2.36926 10.206 2.36926C10.206 2.36926 10.2465 2.16287 10.1714 2.06262ZM16.1882 6.64954H15.5899H14.9916C14.9916 6.31911 15.2595 6.05125 15.5899 6.05125C15.9203 6.05125 16.1882 6.31911 16.1882 6.64954ZM16.1882 6.64957V14.4273H14.9965V14.4273H14.9916V6.64957H16.1882ZM9.00403 14.4273H9.0088V6.64957H7.81222V10.5385V14.4273H9.00403V14.4273ZM9.00403 14.4273C9.00404 14.8208 9.08154 15.2104 9.23211 15.5739C9.38268 15.9374 9.60338 16.2677 9.88161 16.5459C10.1598 16.8242 10.4901 17.0449 10.8537 17.1954C11.2172 17.346 11.6068 17.4235 12.0003 17.4235C12.3937 17.4235 12.7833 17.346 13.1469 17.1954C13.5104 17.0449 13.8407 16.8242 14.1189 16.5459C14.3971 16.2677 14.6178 15.9374 14.7684 15.5739C14.919 15.2104 14.9965 14.8208 14.9965 14.4273H16.1882V14.4273H16.1883C16.1883 14.9773 16.08 15.5219 15.8695 16.03C15.8132 16.1659 15.7499 16.2985 15.6799 16.4273C15.4882 16.7799 15.2465 17.1038 14.9616 17.3887C14.5728 17.7776 14.1111 18.0861 13.6029 18.2965C13.0948 18.507 12.5502 18.6153 12.0003 18.6153C11.4503 18.6153 10.9057 18.507 10.3976 18.2965C9.88945 18.0861 9.42776 17.7776 9.03887 17.3887C8.75401 17.1038 8.51229 16.7799 8.32063 16.4273C8.25064 16.2985 8.18732 16.1659 8.13102 16.03C7.92056 15.5219 7.81223 14.9773 7.81222 14.4273H9.00403ZM14.3931 13.829C14.3931 15.1507 13.3217 16.2222 12 16.2222C10.6783 16.2222 9.60682 15.1507 9.60682 13.829C9.60682 12.5073 10.6783 11.4359 12 11.4359C13.3217 11.4359 14.3931 12.5073 14.3931 13.829ZM16.4371 20.2906C16.4371 20.2906 16.3106 20.1348 15.9439 20.1349C15.8232 20.1349 15.7356 20.1602 15.6665 20.1802C15.5643 20.2098 15.5024 20.2278 15.4332 20.1349C15.2718 19.9182 15.5397 19.6923 15.8388 19.6923C16.138 19.6923 16.4371 20.1254 16.4371 20.2906ZM8.41051 6.64954H9.0088C9.0088 6.31911 8.74094 6.05125 8.41051 6.05125C8.08009 6.05125 7.81222 6.31911 7.81222 6.64954H8.41051Z" fill="#182F73"/>
<path d="M33.16 18C32.9147 18 32.7013 17.9093 32.52 17.728C32.3493 17.5467 32.264 17.3333 32.264 17.088V7.232C32.264 6.98667 32.3493 6.77333 32.52 6.592C32.7013 6.41067 32.9147 6.32 33.16 6.32H33.512C34.12 6.32 34.568 6.58667 34.856 7.12L38.808 14.256C38.808 14.2667 38.8133 14.272 38.824 14.272C38.8347 14.272 38.84 14.2667 38.84 14.256V7.232C38.84 6.98667 38.9307 6.77333 39.112 6.592C39.2933 6.41067 39.5067 6.32 39.752 6.32H40.104C40.3493 6.32 40.5573 6.41067 40.728 6.592C40.9093 6.77333 41 6.98667 41 7.232V17.088C41 17.3333 40.9093 17.5467 40.728 17.728C40.5573 17.9093 40.3493 18 40.104 18H39.752C39.144 18 38.696 17.7333 38.408 17.2L34.456 10.064C34.456 10.0533 34.4507 10.048 34.44 10.048C34.4293 10.048 34.424 10.0533 34.424 10.064V17.088C34.424 17.3333 34.3333 17.5467 34.152 17.728C33.9707 17.9093 33.7573 18 33.512 18H33.16ZM46.9056 8.304L45.4976 13.328C45.487 13.36 45.4923 13.392 45.5136 13.424C45.535 13.456 45.5616 13.472 45.5936 13.472H48.2496C48.2816 13.472 48.3083 13.456 48.3296 13.424C48.351 13.392 48.3563 13.36 48.3456 13.328L46.9376 8.304C46.9376 8.29333 46.9323 8.288 46.9216 8.288C46.911 8.288 46.9056 8.29333 46.9056 8.304ZM42.7616 18C42.5376 18 42.3616 17.9093 42.2336 17.728C42.1056 17.5467 42.079 17.3493 42.1536 17.136L45.4656 7.184C45.5616 6.928 45.7163 6.72 45.9296 6.56C46.1536 6.4 46.399 6.32 46.6656 6.32H47.2416C47.519 6.32 47.7643 6.4 47.9776 6.56C48.2016 6.72 48.3563 6.928 48.4416 7.184L51.7536 17.136C51.8283 17.3493 51.8016 17.5467 51.6736 17.728C51.5456 17.9093 51.3696 18 51.1456 18H50.5696C50.3136 18 50.0736 17.92 49.8496 17.76C49.6363 17.5893 49.4923 17.376 49.4176 17.12L48.9056 15.312C48.895 15.2267 48.8363 15.184 48.7296 15.184H45.1136C45.0176 15.184 44.959 15.2267 44.9376 15.312L44.4256 17.12C44.3616 17.376 44.2176 17.5893 43.9936 17.76C43.7803 17.92 43.5403 18 43.2736 18H42.7616ZM51.4491 8.176C51.2038 8.176 50.9905 8.09067 50.8091 7.92C50.6278 7.73867 50.5371 7.52533 50.5371 7.28V7.232C50.5371 6.98667 50.6278 6.77333 50.8091 6.592C50.9905 6.41067 51.2038 6.32 51.4491 6.32H58.2651C58.5105 6.32 58.7238 6.41067 58.9051 6.592C59.0865 6.77333 59.1771 6.98667 59.1771 7.232V7.28C59.1771 7.52533 59.0865 7.73867 58.9051 7.92C58.7238 8.09067 58.5105 8.176 58.2651 8.176H56.1211C56.0358 8.176 55.9931 8.224 55.9931 8.32V17.088C55.9931 17.3333 55.9025 17.5467 55.7211 17.728C55.5398 17.9093 55.3265 18 55.0811 18H54.6331C54.3878 18 54.1745 17.9093 53.9931 17.728C53.8118 17.5467 53.7211 17.3333 53.7211 17.088V8.32C53.7211 8.224 53.6785 8.176 53.5931 8.176H51.4491ZM62.8801 8.144V11.616C62.8801 11.7013 62.9281 11.744 63.0241 11.744H63.8241C65.7228 11.744 66.6721 11.0667 66.6721 9.712C66.6721 8.50667 65.7921 7.904 64.0321 7.904C63.7121 7.904 63.3761 7.93067 63.0241 7.984C62.9281 8.00533 62.8801 8.05867 62.8801 8.144ZM61.5841 18C61.3388 18 61.1255 17.9093 60.9441 17.728C60.7628 17.5467 60.6721 17.3333 60.6721 17.088V7.312C60.6721 7.056 60.7575 6.82667 60.9281 6.624C61.0988 6.42133 61.3121 6.30933 61.5681 6.288C62.4748 6.20267 63.3495 6.16 64.1921 6.16C65.7601 6.16 66.9335 6.45333 67.7121 7.04C68.4908 7.616 68.8801 8.432 68.8801 9.488C68.8801 10.2453 68.6721 10.912 68.2561 11.488C67.8508 12.064 67.3015 12.4693 66.6081 12.704C66.5975 12.704 66.5921 12.7093 66.5921 12.72C66.5921 12.7413 66.5975 12.752 66.6081 12.752C67.1201 13.072 67.5575 13.7013 67.9201 14.64L68.8801 17.152C68.9548 17.3547 68.9281 17.5467 68.8001 17.728C68.6828 17.9093 68.5175 18 68.3041 18H67.8081C67.5308 18 67.2801 17.9253 67.0561 17.776C66.8321 17.616 66.6721 17.408 66.5761 17.152L65.6801 14.688C65.4881 14.176 65.2695 13.84 65.0241 13.68C64.7788 13.52 64.3575 13.44 63.7601 13.44H63.0241C62.9281 13.44 62.8801 13.488 62.8801 13.584V17.088C62.8801 17.3333 62.7895 17.5467 62.6081 17.728C62.4375 17.9093 62.2295 18 61.9841 18H61.5841ZM78.4965 13.84C78.4965 16.72 77.0565 18.16 74.1765 18.16C71.2965 18.16 69.8565 16.72 69.8565 13.84V7.232C69.8565 6.98667 69.9472 6.77333 70.1285 6.592C70.3098 6.41067 70.5232 6.32 70.7685 6.32H71.2165C71.4618 6.32 71.6752 6.41067 71.8565 6.592C72.0378 6.77333 72.1285 6.98667 72.1285 7.232V13.968C72.1285 14.8 72.2938 15.4027 72.6245 15.776C72.9658 16.1387 73.4938 16.32 74.2085 16.32C74.9232 16.32 75.4458 16.1387 75.7765 15.776C76.1178 15.4027 76.2885 14.8 76.2885 13.968V7.232C76.2885 6.98667 76.3792 6.77333 76.5605 6.592C76.7418 6.41067 76.9552 6.32 77.2005 6.32H77.5845C77.8298 6.32 78.0432 6.41067 78.2245 6.592C78.4058 6.77333 78.4965 6.98667 78.4965 7.232V13.84ZM81.1322 18C80.8869 18 80.6736 17.9093 80.4922 17.728C80.3109 17.5467 80.2202 17.3333 80.2202 17.088V7.232C80.2202 6.98667 80.3109 6.77333 80.4922 6.592C80.6736 6.41067 80.8869 6.32 81.1322 6.32H81.5322C81.8096 6.32 82.0656 6.39467 82.3002 6.544C82.5349 6.69333 82.7056 6.89067 82.8122 7.136L85.6122 13.184C85.6122 13.1947 85.6176 13.2 85.6282 13.2C85.6389 13.2 85.6442 13.1947 85.6442 13.184L88.4443 7.136C88.5509 6.89067 88.7216 6.69333 88.9562 6.544C89.1909 6.39467 89.4469 6.32 89.7242 6.32H90.1882C90.4336 6.32 90.6469 6.41067 90.8282 6.592C91.0096 6.77333 91.1003 6.98667 91.1003 7.232V17.088C91.1003 17.3333 91.0096 17.5467 90.8282 17.728C90.6469 17.9093 90.4336 18 90.1882 18H89.8362C89.5909 18 89.3776 17.9093 89.1962 17.728C89.0149 17.5467 88.9242 17.3333 88.9242 17.088V10.128C88.9242 10.1173 88.9189 10.112 88.9082 10.112C88.8976 10.112 88.8923 10.1173 88.8923 10.128L86.9722 14.24C86.8549 14.4853 86.6736 14.688 86.4282 14.848C86.1936 14.9973 85.9429 15.072 85.6762 15.072H85.5802C85.3136 15.072 85.0576 14.9973 84.8122 14.848C84.5776 14.688 84.4016 14.4853 84.2842 14.24L82.3642 10.128C82.3642 10.1173 82.3589 10.112 82.3482 10.112C82.3376 10.112 82.3322 10.1173 82.3322 10.128V17.088C82.3322 17.3333 82.2416 17.5467 82.0602 17.728C81.8789 17.9093 81.6656 18 81.4202 18H81.1322ZM97.0025 8.304L95.5945 13.328C95.5838 13.36 95.5892 13.392 95.6105 13.424C95.6318 13.456 95.6585 13.472 95.6905 13.472H98.3465C98.3785 13.472 98.4052 13.456 98.4265 13.424C98.4478 13.392 98.4532 13.36 98.4425 13.328L97.0345 8.304C97.0345 8.29333 97.0292 8.288 97.0185 8.288C97.0078 8.288 97.0025 8.29333 97.0025 8.304ZM92.8585 18C92.6345 18 92.4585 17.9093 92.3305 17.728C92.2025 17.5467 92.1758 17.3493 92.2505 17.136L95.5625 7.184C95.6585 6.928 95.8132 6.72 96.0265 6.56C96.2505 6.4 96.4958 6.32 96.7625 6.32H97.3385C97.6158 6.32 97.8612 6.4 98.0745 6.56C98.2985 6.72 98.4532 6.928 98.5385 7.184L101.851 17.136C101.925 17.3493 101.899 17.5467 101.771 17.728C101.643 17.9093 101.467 18 101.243 18H100.667C100.411 18 100.171 17.92 99.9465 17.76C99.7332 17.5893 99.5892 17.376 99.5145 17.12L99.0025 15.312C98.9918 15.2267 98.9332 15.184 98.8265 15.184H95.2105C95.1145 15.184 95.0558 15.2267 95.0345 15.312L94.5225 17.12C94.4585 17.376 94.3145 17.5893 94.0905 17.76C93.8772 17.92 93.6372 18 93.3705 18H92.8585ZM103.164 18C102.961 18 102.807 17.9147 102.7 17.744C102.593 17.5627 102.588 17.3813 102.684 17.2L105.356 12.208C105.399 12.144 105.399 12.064 105.356 11.968L102.764 7.12C102.668 6.93867 102.673 6.76267 102.78 6.592C102.887 6.41067 103.041 6.32 103.244 6.32H103.932C104.209 6.32 104.465 6.39467 104.7 6.544C104.935 6.69333 105.111 6.89067 105.228 7.136L106.908 10.672C106.908 10.6827 106.913 10.688 106.924 10.688C106.935 10.688 106.94 10.6827 106.94 10.672L108.62 7.136C108.737 6.89067 108.913 6.69333 109.148 6.544C109.383 6.39467 109.639 6.32 109.916 6.32H110.54C110.753 6.32 110.908 6.41067 111.004 6.592C111.111 6.76267 111.116 6.93867 111.02 7.12L108.428 11.968C108.396 12.0427 108.396 12.1227 108.428 12.208L111.1 17.2C111.196 17.3813 111.191 17.5627 111.084 17.744C110.988 17.9147 110.833 18 110.62 18H109.884C109.607 18 109.345 17.9253 109.1 17.776C108.865 17.6267 108.695 17.4293 108.588 17.184L106.876 13.488C106.876 13.4773 106.871 13.472 106.86 13.472C106.849 13.472 106.844 13.4773 106.844 13.488L105.132 17.184C105.025 17.4293 104.849 17.6267 104.604 17.776C104.369 17.9253 104.113 18 103.836 18H103.164Z" fill="#182F73"/>
</svg>
