  <svg width="41" height="41" viewBox="0 0 41 41" fill="none" xmlns="http://www.w3.org/2000/svg">
    <rect width="41" height="41" />
    <path
      fill-rule="evenodd"
      clip-rule="evenodd"
      d="M39 20.5C39 30.7173 30.7173 39 20.5 39C10.2827 39 2 30.7173 2 20.5C2 10.2827 10.2827 2 20.5 2C30.7173 2 39 10.2827 39 20.5ZM40 20.5C40 31.2696 31.2696 40 20.5 40C9.73045 40 1 31.2696 1 20.5C1 9.73045 9.73045 1 20.5 1C31.2696 1 40 9.73045 40 20.5ZM17.2999 3.16448C17.1685 2.99007 16.3499 3.24687 16.0669 3.33889C16.0503 3.34429 16.0154 3.35377 15.9638 3.3678C15.1359 3.59267 9.99984 4.98776 6.70826 9.5458C3.42674 14.0899 3.18747 17.1827 3.07168 18.6795L3.07168 18.6795C3.06407 18.7778 3.05701 18.8692 3.04964 18.9536C2.74646 22.4315 3.88848 26.802 4.93956 28.7821C5.66387 30.1466 7.48641 32.6428 8.51728 33.4501C8.87101 33.7271 9.5748 33.825 9.97263 33.645C10.9024 33.2243 11.7324 33.0271 13.0956 32.9473C14.1376 32.8864 14.815 33.0051 15.7828 33.1748H15.7828C15.8747 33.1909 15.9692 33.2074 16.0669 33.2243C17.2008 33.4207 17.8976 33.6586 18.78 33.96L18.7804 33.9601C19.0986 34.0688 19.441 34.1857 19.8367 34.3118C20.3975 34.4907 20.8728 34.6555 21.324 34.8119L21.3241 34.8119C22.1542 35.0998 22.9024 35.3592 23.9501 35.625C24.0566 35.6521 24.1604 35.6788 24.262 35.7049C25.4661 36.0144 26.3544 36.2428 27.7805 36.0252C28.33 35.9413 28.4917 35.8215 28.8259 35.5741C28.9112 35.511 29.0077 35.4396 29.1246 35.3583C29.3167 35.2249 29.6547 34.794 29.6704 34.6504C29.7041 34.3428 29.6603 34.0451 29.3369 33.7989C29.0135 33.5527 28.9933 33.3885 29.0438 33.2243C29.0987 33.0461 29.3268 33.0397 29.4784 33.0397C29.63 33.0397 30.0848 33.0807 30.2465 33.4706C30.3166 33.6397 30.3265 33.8563 30.3348 34.0368C30.3455 34.2726 30.3535 34.4468 30.489 34.3734C30.6507 34.2859 30.7013 34.1785 30.7417 34.0246C30.7821 33.8707 30.8226 33.409 30.6811 33.1833C30.5396 32.9576 30.3273 32.6293 30.1959 32.4446C30.0646 32.26 29.9231 32.0138 29.9231 31.6649C29.9231 31.3161 30.1656 31.2135 30.2465 31.2135L30.2622 31.2134C30.3423 31.2121 30.4524 31.2104 30.5093 31.47C30.5404 31.6121 30.5289 31.7244 30.5199 31.8127C30.5114 31.8965 30.5051 31.9585 30.5396 32.0035C30.6103 32.0958 30.7417 32.1266 30.8226 31.9727C30.9034 31.8188 30.9641 31.5316 30.8832 31.2443C30.8023 30.957 30.7013 30.8237 30.4587 30.598C30.2162 30.3723 29.6906 30.2081 29.4076 30.126C29.3709 30.1154 29.3363 30.1058 29.3037 30.0967C29.0848 30.036 28.9577 30.0008 28.9225 29.849C28.8821 29.6746 28.8922 29.5925 29.0135 29.4181C29.1348 29.2437 29.7209 28.977 30.4587 29.0283C31.1965 29.0796 31.5806 29.1617 32.0151 29.531C32.4497 29.9003 32.8439 30.4133 33.0359 30.9468C33.2279 31.4803 33.3694 32.5165 33.3694 32.5165C33.3694 32.5165 34.3801 31.5213 35.6535 29.4797C36.9269 27.4381 37.9881 23.2933 37.9881 21.6416C37.9881 21.5164 37.9905 21.3738 37.993 21.2149V21.2148C38.0246 19.2761 38.096 14.8971 34.4812 9.84331C30.5699 4.37509 24.3644 3.14397 24.0208 3.08241C23.6772 3.02086 23.4144 3.07215 23.3437 3.16448C23.2729 3.25682 23.2426 3.37993 23.3437 3.70823C23.355 3.7451 23.3659 3.77939 23.3761 3.8117L23.3762 3.81198C23.4568 4.06712 23.4985 4.19893 23.4447 4.50845C23.3841 4.85727 22.7676 5.33946 22.525 5.51387C22.2825 5.68828 21.6053 6.18073 21.4638 6.57058C21.3223 6.96044 21.484 7.5247 21.6862 7.97611C21.8883 8.42752 21.9995 8.77634 21.9591 9.23801C21.9186 9.69968 21.4739 9.95616 21.1101 10.1203C20.7463 10.2845 20.1904 10.2639 19.8771 10.2332C19.5638 10.2024 18.9978 9.82279 18.8462 9.36112C18.7051 8.93125 18.8881 8.51917 19.0853 8.07518L19.1292 7.97611C19.3414 7.49392 19.5941 6.8681 19.4324 6.53981C19.2707 6.21151 18.9069 5.92424 18.3005 5.57543L18.2962 5.57298C17.6928 5.22587 17.4204 5.0692 17.2999 4.50845C17.2333 4.19832 17.3606 3.69797 17.3606 3.69797C17.3606 3.69797 17.4313 3.33889 17.2999 3.16448ZM27.3055 11.8055H26.3333H25.3611C25.3611 11.2685 25.7964 10.8333 26.3333 10.8333C26.8703 10.8333 27.3055 11.2685 27.3055 11.8055ZM27.3055 11.8055V24.4443H25.369V24.4444H25.3611V11.8055H27.3055ZM15.6313 24.4444H15.639V11.8055H13.6946V18.125V24.4443H15.6313V24.4444ZM15.6313 24.4444C15.6313 25.0838 15.7572 25.7169 16.0019 26.3076C16.2466 26.8983 16.6052 27.435 17.0573 27.8872C17.5094 28.3393 18.0462 28.6979 18.6369 28.9426C19.2276 29.1873 19.8607 29.3132 20.5001 29.3132C21.1395 29.3132 21.7727 29.1873 22.3634 28.9426C22.9541 28.6979 23.4908 28.3393 23.9429 27.8872C24.3951 27.435 24.7537 26.8983 24.9984 26.3076C25.2431 25.7169 25.369 25.0838 25.369 24.4444H27.3055V24.4443H27.3057C27.3057 25.1235 27.2041 25.7975 27.0052 26.4443C26.9423 26.6488 26.8698 26.8504 26.7876 27.0487C26.4456 27.8744 25.9443 28.6246 25.3124 29.2566C24.6804 29.8886 23.9302 30.3899 23.1045 30.7319C22.2788 31.0739 21.3939 31.2499 20.5001 31.2499C19.6064 31.2499 18.7215 31.0739 17.8958 30.7319C17.0701 30.3899 16.3198 29.8886 15.6879 29.2566C15.0559 28.6246 14.5546 27.8744 14.2126 27.0487C14.1305 26.8504 14.0579 26.6488 13.9951 26.4443C13.7962 25.7975 13.6946 25.1235 13.6946 24.4444H15.6313ZM24.3889 23.4721C24.3889 25.6199 22.6477 27.361 20.5 27.361C18.3522 27.361 16.6111 25.6199 16.6111 23.4721C16.6111 21.3244 18.3522 19.5833 20.5 19.5833C22.6477 19.5833 24.3889 21.3244 24.3889 23.4721ZM27.7102 33.9722C27.7102 33.9722 27.5046 33.7191 26.9087 33.7191C26.7126 33.7192 26.5703 33.7604 26.4579 33.7929C26.2919 33.841 26.1913 33.8701 26.0788 33.7191C25.8165 33.367 26.2518 33 26.7379 33C27.2241 33 27.7102 33.7038 27.7102 33.9722ZM14.6668 11.8055H15.639C15.639 11.2685 15.2037 10.8333 14.6668 10.8333C14.1299 10.8333 13.6946 11.2685 13.6946 11.8055H14.6668Z"
      fill="#182F73"
    />
  </svg>