<svg width="201" height="32" viewBox="0 0 201 32" fill="none" xmlns="http://www.w3.org/2000/svg">
    <path fill-rule="evenodd" clip-rule="evenodd" d="M31 16C31 24.2843 24.2843 31 16 31C7.71573 31 1 24.2843 1 16C1 7.71573 7.71573 1 16 1C24.2843 1 31 7.71573 31 16ZM32 16C32 24.8366 24.8366 32 16 32C7.16344 32 0 24.8366 0 16C0 7.16344 7.16344 0 16 0C24.8366 0 32 7.16344 32 16ZM13.4399 2.08569C13.3348 1.9485 12.6799 2.15049 12.4535 2.22287C12.4402 2.22712 12.4123 2.23457 12.371 2.24561C11.7087 2.42248 7.59987 3.5198 4.96661 7.10494C2.34139 10.6791 2.14998 13.1118 2.05734 14.2891L2.05734 14.2892C2.05126 14.3664 2.0456 14.4383 2.03972 14.5047C1.79717 17.2403 2.71078 20.6779 3.55164 22.2353C4.1311 23.3086 5.58913 25.272 6.41383 25.9069C6.69681 26.1248 7.25984 26.2018 7.57811 26.0603C8.32195 25.7294 8.98593 25.5743 10.0765 25.5115C10.9101 25.4636 11.452 25.557 12.2263 25.6904C12.2998 25.7031 12.3754 25.7161 12.4535 25.7294C13.3606 25.8838 13.9181 26.071 14.624 26.308L14.624 26.308L14.6242 26.3081C14.8788 26.3936 15.1527 26.4855 15.4693 26.5848C15.918 26.7254 16.2982 26.8551 16.6592 26.9781C17.3233 27.2045 17.9219 27.4086 18.76 27.6177C18.8453 27.639 18.9283 27.6599 19.0096 27.6805C19.9729 27.924 20.6835 28.1036 21.8244 27.9324C22.264 27.8664 22.3934 27.7722 22.6607 27.5776C22.7289 27.528 22.8061 27.4718 22.8997 27.4079C23.0533 27.303 23.3237 26.9641 23.3363 26.8511C23.3633 26.6091 23.3282 26.375 23.0695 26.1813C22.8108 25.9876 22.7946 25.8585 22.835 25.7294C22.8789 25.5892 23.0614 25.5842 23.1827 25.5842C23.304 25.5842 23.6678 25.6164 23.7972 25.9231C23.8533 26.0561 23.8612 26.2265 23.8678 26.3685C23.8764 26.5539 23.8828 26.6909 23.9912 26.6332C24.1206 26.5643 24.161 26.4799 24.1934 26.3588C24.2257 26.2378 24.258 25.8747 24.1449 25.6971C24.0317 25.5196 23.8619 25.2614 23.7568 25.1161C23.6516 24.9709 23.5385 24.7772 23.5385 24.5029C23.5385 24.2285 23.7325 24.1478 23.7972 24.1478L23.8097 24.1477C23.8739 24.1467 23.9619 24.1453 24.0074 24.3495C24.0323 24.4613 24.0231 24.5497 24.016 24.6191C24.0091 24.685 24.0041 24.7338 24.0317 24.7691C24.0883 24.8418 24.1934 24.866 24.258 24.7449C24.3227 24.6239 24.3712 24.3979 24.3066 24.172C24.2419 23.9461 24.161 23.8412 23.967 23.6636C23.7729 23.4861 23.3525 23.357 23.1261 23.2924C23.0968 23.284 23.069 23.2765 23.0429 23.2694C22.8678 23.2216 22.7662 23.1939 22.738 23.0745C22.7057 22.9374 22.7138 22.8728 22.8108 22.7356C22.9078 22.5984 23.3768 22.3886 23.967 22.429C24.5572 22.4693 24.8644 22.5339 25.2121 22.8244C25.5598 23.1149 25.8751 23.5184 26.0287 23.938C26.1824 24.3576 26.2955 25.1726 26.2955 25.1726C26.2955 25.1726 27.1041 24.3899 28.1228 22.784C29.1416 21.1782 29.9905 17.9181 29.9905 16.6189C29.9905 16.5205 29.9924 16.4083 29.9944 16.2833V16.2832C30.0197 14.7584 30.0768 11.314 27.1849 7.33895C24.0559 3.03789 19.0916 2.06955 18.8167 2.02113C18.5418 1.97272 18.3315 2.01306 18.2749 2.08569C18.2183 2.15832 18.1941 2.25515 18.2749 2.51337C18.284 2.54237 18.2927 2.56934 18.3008 2.59475L18.3009 2.59498C18.3655 2.79566 18.3988 2.89934 18.3558 3.1428C18.3073 3.41716 17.8141 3.79643 17.62 3.93361C17.426 4.07079 16.8843 4.45813 16.7711 4.76477C16.6579 5.07141 16.7872 5.51524 16.9489 5.8703C17.1106 6.22536 17.1996 6.49972 17.1672 6.86285C17.1349 7.22598 16.7791 7.42772 16.4881 7.55683C16.197 7.68594 15.7523 7.6698 15.5017 7.64559C15.251 7.62139 14.7983 7.32281 14.677 6.95968C14.564 6.62157 14.7105 6.29744 14.8683 5.94822L14.9034 5.8703C15.0732 5.49103 15.2753 4.99879 15.1459 4.74056C15.0166 4.48234 14.7255 4.25639 14.2404 3.98203L14.237 3.9801C13.7542 3.70709 13.5363 3.58385 13.4399 3.1428C13.3866 2.89886 13.4884 2.5053 13.4884 2.5053C13.4884 2.5053 13.545 2.22287 13.4399 2.08569ZM21.5843 8.86605H20.7865H19.9888C19.9888 8.42548 20.346 8.06833 20.7865 8.06833C21.2271 8.06833 21.5843 8.42548 21.5843 8.86605ZM19.9888 8.8661H21.5843V19.2364H19.9953V19.2365H19.9888V8.8661ZM12.0054 19.2365C12.0054 19.7611 12.1087 20.2805 12.3095 20.7652C12.5102 21.2499 12.8045 21.6903 13.1755 22.0613C13.5464 22.4322 13.9868 22.7265 14.4715 22.9273C14.9562 23.128 15.4757 23.2314 16.0003 23.2314C16.525 23.2314 17.0445 23.128 17.5292 22.9273C18.0138 22.7265 18.4542 22.4322 18.8252 22.0613C19.1962 21.6903 19.4904 21.2499 19.6912 20.7652C19.892 20.2805 19.9953 19.7611 19.9953 19.2365H21.5843V19.2364H21.5844C21.5844 19.9205 21.4587 20.5984 21.2139 21.2364C21.1964 21.2822 21.1781 21.3279 21.1593 21.3733C20.8787 22.0508 20.4674 22.6664 19.9489 23.1849C19.4303 23.7034 18.8148 24.1148 18.1373 24.3954C17.4598 24.676 16.7337 24.8204 16.0003 24.8204C15.267 24.8204 14.5409 24.676 13.8634 24.3954C13.1859 24.1148 12.5704 23.7034 12.0518 23.1849C11.5333 22.6664 11.122 22.0508 10.8414 21.3733C10.8225 21.3279 10.8043 21.2822 10.7867 21.2364C10.542 20.5984 10.4163 19.9206 10.4163 19.2365H12.0054ZM12.0054 19.2365V19.2364H10.4163V14.0513V8.8661H12.0117V19.2365H12.0054ZM19.1909 18.4387C19.1909 20.201 17.7623 21.6296 16 21.6296C14.2377 21.6296 12.8091 20.201 12.8091 18.4387C12.8091 16.6764 14.2377 15.2478 16 15.2478C17.7623 15.2478 19.1909 16.6764 19.1909 18.4387ZM21.9162 27.0541C21.9162 27.0541 21.7474 26.8464 21.2586 26.8465C21.0976 26.8465 20.9808 26.8803 20.8887 26.907C20.7524 26.9465 20.6699 26.9704 20.5776 26.8465C20.3624 26.5575 20.7196 26.2564 21.1184 26.2564C21.5173 26.2564 21.9162 26.8339 21.9162 27.0541ZM11.214 8.86605H12.0117C12.0117 8.42548 11.6546 8.06833 11.214 8.06833C10.7734 8.06833 10.4163 8.42548 10.4163 8.86605H11.214Z" fill="#F8FAFC"/>
    <path d="M43.32 28C42.8293 28 42.4027 27.8187 42.04 27.456C41.6987 27.0933 41.528 26.6667 41.528 26.176V6.464C41.528 5.97333 41.6987 5.54667 42.04 5.184C42.4027 4.82133 42.8293 4.64 43.32 4.64H44.024C45.24 4.64 46.136 5.17333 46.712 6.24L54.616 20.512C54.616 20.5333 54.6267 20.544 54.648 20.544C54.6693 20.544 54.68 20.5333 54.68 20.512V6.464C54.68 5.97333 54.8613 5.54667 55.224 5.184C55.5867 4.82133 56.0133 4.64 56.504 4.64H57.208C57.6987 4.64 58.1147 4.82133 58.456 5.184C58.8187 5.54667 59 5.97333 59 6.464V26.176C59 26.6667 58.8187 27.0933 58.456 27.456C58.1147 27.8187 57.6987 28 57.208 28H56.504C55.288 28 54.392 27.4667 53.816 26.4L45.912 12.128C45.912 12.1067 45.9013 12.096 45.88 12.096C45.8587 12.096 45.848 12.1067 45.848 12.128V26.176C45.848 26.6667 45.6667 27.0933 45.304 27.456C44.9413 27.8187 44.5147 28 44.024 28H43.32ZM70.8112 8.608L67.9952 18.656C67.9739 18.72 67.9846 18.784 68.0272 18.848C68.0699 18.912 68.1232 18.944 68.1872 18.944H73.4993C73.5633 18.944 73.6166 18.912 73.6593 18.848C73.7019 18.784 73.7126 18.72 73.6912 18.656L70.8752 8.608C70.8752 8.58667 70.8646 8.576 70.8433 8.576C70.8219 8.576 70.8112 8.58667 70.8112 8.608ZM62.5232 28C62.0752 28 61.7232 27.8187 61.4672 27.456C61.2112 27.0933 61.1579 26.6987 61.3072 26.272L67.9312 6.368C68.1232 5.856 68.4326 5.44 68.8593 5.12C69.3073 4.8 69.7979 4.64 70.3313 4.64H71.4832C72.0379 4.64 72.5286 4.8 72.9552 5.12C73.4032 5.44 73.7126 5.856 73.8833 6.368L80.5072 26.272C80.6566 26.6987 80.6033 27.0933 80.3472 27.456C80.0913 27.8187 79.7393 28 79.2913 28H78.1392C77.6273 28 77.1472 27.84 76.6992 27.52C76.2726 27.1787 75.9846 26.752 75.8352 26.24L74.8112 22.624C74.7899 22.4533 74.6726 22.368 74.4593 22.368H67.2272C67.0352 22.368 66.9179 22.4533 66.8752 22.624L65.8512 26.24C65.7232 26.752 65.4352 27.1787 64.9872 27.52C64.5606 27.84 64.0806 28 63.5472 28H62.5232ZM79.8982 8.352C79.4076 8.352 78.9809 8.18133 78.6182 7.84C78.2556 7.47733 78.0742 7.05067 78.0742 6.56V6.464C78.0742 5.97333 78.2556 5.54667 78.6182 5.184C78.9809 4.82133 79.4076 4.64 79.8982 4.64H93.5302C94.0209 4.64 94.4476 4.82133 94.8102 5.184C95.1729 5.54667 95.3542 5.97333 95.3542 6.464V6.56C95.3542 7.05067 95.1729 7.47733 94.8102 7.84C94.4476 8.18133 94.0209 8.352 93.5302 8.352H89.2422C89.0716 8.352 88.9862 8.448 88.9862 8.64V26.176C88.9862 26.6667 88.8049 27.0933 88.4422 27.456C88.0796 27.8187 87.6529 28 87.1622 28H86.2662C85.7756 28 85.3489 27.8187 84.9862 27.456C84.6236 27.0933 84.4422 26.6667 84.4422 26.176V8.64C84.4422 8.448 84.3569 8.352 84.1862 8.352H79.8982ZM102.76 8.288V15.232C102.76 15.4027 102.856 15.488 103.048 15.488H104.648C108.446 15.488 110.344 14.1333 110.344 11.424C110.344 9.01333 108.584 7.808 105.064 7.808C104.424 7.808 103.752 7.86133 103.048 7.968C102.856 8.01067 102.76 8.11733 102.76 8.288ZM100.168 28C99.6776 28 99.2509 27.8187 98.8882 27.456C98.5256 27.0933 98.3442 26.6667 98.3442 26.176V6.624C98.3442 6.112 98.5149 5.65333 98.8563 5.248C99.1976 4.84267 99.6243 4.61867 100.136 4.576C101.95 4.40533 103.699 4.32 105.384 4.32C108.52 4.32 110.867 4.90667 112.424 6.08C113.982 7.232 114.76 8.864 114.76 10.976C114.76 12.4907 114.344 13.824 113.512 14.976C112.702 16.128 111.603 16.9387 110.216 17.408C110.195 17.408 110.184 17.4187 110.184 17.44C110.184 17.4827 110.195 17.504 110.216 17.504C111.24 18.144 112.115 19.4027 112.84 21.28L114.76 26.304C114.91 26.7093 114.856 27.0933 114.6 27.456C114.366 27.8187 114.035 28 113.608 28H112.616C112.062 28 111.56 27.8507 111.112 27.552C110.664 27.232 110.344 26.816 110.152 26.304L108.36 21.376C107.976 20.352 107.539 19.68 107.048 19.36C106.558 19.04 105.715 18.88 104.52 18.88H103.048C102.856 18.88 102.76 18.976 102.76 19.168V26.176C102.76 26.6667 102.579 27.0933 102.216 27.456C101.875 27.8187 101.459 28 100.968 28H100.168ZM133.993 19.68C133.993 25.44 131.113 28.32 125.353 28.32C119.593 28.32 116.713 25.44 116.713 19.68V6.464C116.713 5.97333 116.894 5.54667 117.257 5.184C117.62 4.82133 118.046 4.64 118.537 4.64H119.433C119.924 4.64 120.35 4.82133 120.713 5.184C121.076 5.54667 121.257 5.97333 121.257 6.464V19.936C121.257 21.6 121.588 22.8053 122.249 23.552C122.932 24.2773 123.988 24.64 125.417 24.64C126.846 24.64 127.892 24.2773 128.553 23.552C129.236 22.8053 129.577 21.6 129.577 19.936V6.464C129.577 5.97333 129.758 5.54667 130.121 5.184C130.484 4.82133 130.91 4.64 131.401 4.64H132.169C132.66 4.64 133.086 4.82133 133.449 5.184C133.812 5.54667 133.993 5.97333 133.993 6.464V19.68ZM139.264 28C138.774 28 138.347 27.8187 137.984 27.456C137.622 27.0933 137.44 26.6667 137.44 26.176V6.464C137.44 5.97333 137.622 5.54667 137.984 5.184C138.347 4.82133 138.774 4.64 139.264 4.64H140.064C140.619 4.64 141.131 4.78933 141.6 5.088C142.07 5.38667 142.411 5.78133 142.624 6.272L148.224 18.368C148.224 18.3893 148.235 18.4 148.256 18.4C148.278 18.4 148.288 18.3893 148.288 18.368L153.889 6.272C154.102 5.78133 154.443 5.38667 154.912 5.088C155.382 4.78933 155.894 4.64 156.448 4.64H157.376C157.867 4.64 158.294 4.82133 158.656 5.184C159.019 5.54667 159.201 5.97333 159.201 6.464V26.176C159.201 26.6667 159.019 27.0933 158.656 27.456C158.294 27.8187 157.867 28 157.376 28H156.672C156.182 28 155.755 27.8187 155.392 27.456C155.03 27.0933 154.848 26.6667 154.848 26.176V12.256C154.848 12.2347 154.838 12.224 154.816 12.224C154.795 12.224 154.785 12.2347 154.785 12.256L150.944 20.48C150.71 20.9707 150.347 21.376 149.856 21.696C149.387 21.9947 148.886 22.144 148.352 22.144H148.16C147.627 22.144 147.115 21.9947 146.624 21.696C146.155 21.376 145.803 20.9707 145.568 20.48L141.728 12.256C141.728 12.2347 141.718 12.224 141.696 12.224C141.675 12.224 141.664 12.2347 141.664 12.256V26.176C141.664 26.6667 141.483 27.0933 141.12 27.456C140.758 27.8187 140.331 28 139.84 28H139.264ZM171.005 8.608L168.189 18.656C168.168 18.72 168.178 18.784 168.221 18.848C168.264 18.912 168.317 18.944 168.381 18.944H173.693C173.757 18.944 173.81 18.912 173.853 18.848C173.896 18.784 173.906 18.72 173.885 18.656L171.069 8.608C171.069 8.58667 171.058 8.576 171.037 8.576C171.016 8.576 171.005 8.58667 171.005 8.608ZM162.717 28C162.269 28 161.917 27.8187 161.661 27.456C161.405 27.0933 161.352 26.6987 161.501 26.272L168.125 6.368C168.317 5.856 168.626 5.44 169.053 5.12C169.501 4.8 169.992 4.64 170.525 4.64H171.677C172.232 4.64 172.722 4.8 173.149 5.12C173.597 5.44 173.906 5.856 174.077 6.368L180.701 26.272C180.85 26.6987 180.797 27.0933 180.541 27.456C180.285 27.8187 179.933 28 179.485 28H178.333C177.821 28 177.341 27.84 176.893 27.52C176.466 27.1787 176.178 26.752 176.029 26.24L175.005 22.624C174.984 22.4533 174.866 22.368 174.653 22.368H167.421C167.229 22.368 167.112 22.4533 167.069 22.624L166.045 26.24C165.917 26.752 165.629 27.1787 165.181 27.52C164.754 27.84 164.274 28 163.741 28H162.717ZM183.328 28C182.922 28 182.613 27.8293 182.4 27.488C182.186 27.1253 182.176 26.7627 182.368 26.4L187.712 16.416C187.797 16.288 187.797 16.128 187.712 15.936L182.528 6.24C182.336 5.87733 182.346 5.52533 182.56 5.184C182.773 4.82133 183.082 4.64 183.488 4.64H184.864C185.418 4.64 185.93 4.78933 186.4 5.088C186.869 5.38667 187.221 5.78133 187.456 6.272L190.816 13.344C190.816 13.3653 190.826 13.376 190.848 13.376C190.869 13.376 190.88 13.3653 190.88 13.344L194.24 6.272C194.474 5.78133 194.826 5.38667 195.296 5.088C195.765 4.78933 196.277 4.64 196.832 4.64H198.08C198.506 4.64 198.816 4.82133 199.008 5.184C199.221 5.52533 199.232 5.87733 199.04 6.24L193.856 15.936C193.792 16.0853 193.792 16.2453 193.856 16.416L199.2 26.4C199.392 26.7627 199.381 27.1253 199.168 27.488C198.976 27.8293 198.666 28 198.24 28H196.768C196.213 28 195.69 27.8507 195.2 27.552C194.73 27.2533 194.389 26.8587 194.176 26.368L190.752 18.976C190.752 18.9547 190.741 18.944 190.72 18.944C190.698 18.944 190.688 18.9547 190.688 18.976L187.264 26.368C187.05 26.8587 186.698 27.2533 186.208 27.552C185.738 27.8507 185.226 28 184.672 28H183.328Z" fill="#F8FAFC"/>
    </svg>