<svg width="258" height="48" viewBox="0 0 258 48" fill="none" xmlns="http://www.w3.org/2000/svg">
<path fill-rule="evenodd" clip-rule="evenodd" d="M47 24C47 36.7026 36.7026 47 24 47C11.2975 47 1 36.7026 1 24C1 11.2975 11.2975 1 24 1C36.7026 1 47 11.2975 47 24ZM48 24C48 37.2548 37.2548 48 24 48C10.7452 48 0 37.2548 0 24C0 10.7452 10.7452 0 24 0C37.2548 0 48 10.7452 48 24ZM20.3274 2.66399C20.1633 2.44934 19.1405 2.7654 18.7869 2.87865C18.7662 2.8853 18.7226 2.89696 18.6581 2.91422L18.6581 2.91423C17.6237 3.191 11.2069 4.90803 7.09451 10.5179C2.99468 16.1107 2.69574 19.9172 2.55107 21.7594C2.54158 21.8804 2.53275 21.9928 2.52355 22.0968C2.14475 26.3773 3.57156 31.7563 4.88475 34.1933C5.78969 35.8727 8.06671 38.945 9.35465 39.9386C9.79659 40.2795 10.6759 40.4 11.1729 40.1785C12.3346 39.6608 13.3715 39.418 15.0746 39.3198C16.3765 39.2448 17.2229 39.3909 18.4321 39.5998L18.4322 39.5998C18.547 39.6196 18.665 39.64 18.7869 39.6608C20.2035 39.9024 21.0741 40.1953 22.1766 40.5661L22.1766 40.5661L22.177 40.5663C22.5746 40.7 23.0023 40.8439 23.4968 40.9992C24.1974 41.2193 24.7913 41.4221 25.355 41.6147C26.3922 41.9689 27.327 42.2882 28.6359 42.6155C28.769 42.6487 28.8987 42.6816 29.0256 42.7137C30.5301 43.0947 31.6398 43.3757 33.4215 43.1079C34.108 43.0047 34.3102 42.8573 34.7277 42.5528L34.7278 42.5527C34.8343 42.475 34.9548 42.3871 35.1009 42.2872C35.3408 42.123 35.7631 41.5927 35.7827 41.4159C35.8248 41.0373 35.7701 40.6709 35.3661 40.3679C34.962 40.0648 34.9367 39.8628 34.9999 39.6608C35.0684 39.4414 35.3534 39.4335 35.5428 39.4335C35.7322 39.4335 36.3004 39.484 36.5025 39.9638C36.5901 40.1719 36.6025 40.4385 36.6128 40.6607C36.6262 40.9509 36.6361 41.1653 36.8055 41.075C37.0076 40.9672 37.0707 40.8351 37.1212 40.6457C37.1717 40.4563 37.2222 39.888 37.0454 39.6103C36.8687 39.3325 36.6035 38.9284 36.4393 38.7011C36.2752 38.4738 36.0984 38.1708 36.0984 37.7415C36.0984 37.3122 36.4015 37.1859 36.5025 37.1859L36.5221 37.1857C36.6222 37.1842 36.7598 37.1821 36.8308 37.5016C36.8696 37.6764 36.8553 37.8147 36.8441 37.9233C36.8335 38.0265 36.8256 38.1028 36.8687 38.1582C36.957 38.2718 37.1212 38.3097 37.2222 38.1203C37.3232 37.9309 37.399 37.5773 37.298 37.2238C37.197 36.8702 37.0707 36.7061 36.7676 36.4283C36.4646 36.1505 35.808 35.9485 35.4544 35.8474C35.4087 35.8344 35.3656 35.8226 35.3249 35.8115L35.3246 35.8114C35.051 35.7367 34.8923 35.6933 34.8484 35.5065C34.7978 35.2919 34.8105 35.1908 34.962 34.9762C35.1135 34.7615 35.8459 34.4332 36.7676 34.4964C37.6894 34.5595 38.1692 34.6605 38.7122 35.1151C39.2551 35.5697 39.7476 36.201 39.9875 36.8576C40.2274 37.5142 40.4042 38.7895 40.4042 38.7895C40.4042 38.7895 41.6669 37.5647 43.2579 35.052C44.8489 32.5392 46.1747 27.4379 46.1747 25.405C46.1747 25.2511 46.1776 25.0757 46.1808 24.8802L46.1808 24.8798C46.2203 22.4937 46.3094 17.1041 41.7931 10.8841C36.9065 4.15397 29.1536 2.63874 28.7243 2.56298C28.295 2.48723 27.9667 2.55035 27.8783 2.664C27.7899 2.77764 27.752 2.92916 27.8783 3.33322C27.8925 3.37873 27.9061 3.42104 27.9189 3.4609C28.0197 3.77493 28.0718 3.93716 28.0046 4.31811C27.9288 4.74743 27.1586 5.34089 26.8555 5.55555C26.5525 5.77021 25.7065 6.3763 25.5297 6.85612C25.3529 7.33594 25.5549 8.03042 25.8075 8.586C26.06 9.14158 26.1989 9.5709 26.1484 10.1391C26.0979 10.7073 25.5423 11.023 25.0877 11.225C24.6332 11.427 23.9387 11.4018 23.5473 11.3639C23.1558 11.326 22.4487 10.8588 22.2593 10.2906C22.083 9.76156 22.3117 9.25438 22.5581 8.70794C22.5763 8.66752 22.5946 8.62688 22.6129 8.586C22.878 7.99254 23.1937 7.2223 22.9917 6.81824C22.7897 6.41418 22.3351 6.06062 21.5775 5.63131L21.5722 5.6283C20.8183 5.20109 20.478 5.00826 20.3274 4.31811C20.2441 3.93641 20.4032 3.32059 20.4032 3.32059C20.4032 3.32059 20.4916 2.87865 20.3274 2.66399ZM32.3762 13.2991H31.1796H29.983C29.983 12.6382 30.5187 12.1025 31.1796 12.1025C31.8404 12.1025 32.3762 12.6382 32.3762 13.2991ZM32.3762 13.2991V28.8546H31.9931H30.3767H29.9931V28.8547H29.983V13.2991H32.3762ZM18.0082 28.8547H18.0178V13.2991H15.6246V21.0769V28.8546H16.0082H17.6246H18.0082V28.8547ZM18.0082 28.8547C18.0082 29.6416 18.1632 30.4208 18.4644 31.1478C18.7655 31.8748 19.2069 32.5354 19.7634 33.0919C20.3198 33.6483 20.9804 34.0897 21.7075 34.3909C22.4345 34.692 23.2137 34.847 24.0007 34.847C24.7876 34.847 25.5669 34.692 26.2939 34.3909C27.0209 34.0897 27.6815 33.6483 28.238 33.0919C28.7944 32.5354 29.2358 31.8748 29.537 31.1478C29.8381 30.4208 29.9931 29.6416 29.9931 28.8547H32.3762V28.8546H32.3767C32.3767 29.5301 32.295 30.2016 32.1345 30.8546C32.0336 31.2649 31.9016 31.6678 31.7392 32.06C31.3182 33.0762 30.7012 33.9996 29.9235 34.7774C29.1457 35.5551 28.2223 36.1721 27.2061 36.5931C26.1898 37.014 25.1006 37.2307 24.0007 37.2307C22.9007 37.2307 21.8115 37.014 20.7953 36.5931C19.7791 36.1721 18.8557 35.5551 18.0779 34.7774C17.3001 33.9996 16.6831 33.0762 16.2622 32.06C16.0998 31.6678 15.9678 31.2649 15.8669 30.8546C15.7063 30.2016 15.6246 29.5302 15.6246 28.8547H18.0082ZM28.7861 27.6581C28.7861 30.3015 26.6432 32.4444 23.9998 32.4444C21.3564 32.4444 19.2135 30.3015 19.2135 27.6581C19.2135 25.0146 21.3564 22.8717 23.9998 22.8717C26.6432 22.8717 28.7861 25.0146 28.7861 27.6581ZM32.8736 40.5812C32.8736 40.5812 32.6205 40.2696 31.8872 40.2697C31.6457 40.2698 31.4706 40.3205 31.3324 40.3605C31.128 40.4197 31.0042 40.4555 30.8657 40.2697C30.5429 39.8363 31.0787 39.3846 31.677 39.3846C32.2753 39.3846 32.8736 40.2508 32.8736 40.5812ZM16.8212 13.2991H18.0178C18.0178 12.6382 17.482 12.1025 16.8212 12.1025C16.1603 12.1025 15.6246 12.6382 15.6246 13.2991H16.8212Z" fill="#F8FAFC"/>
<path d="M60.4 39C59.7867 39 59.2533 38.7733 58.8 38.32C58.3733 37.8667 58.16 37.3333 58.16 36.72V12.08C58.16 11.4667 58.3733 10.9333 58.8 10.48C59.2533 10.0267 59.7867 9.8 60.4 9.8H61.28C62.8 9.8 63.92 10.4667 64.64 11.8L74.52 29.64C74.52 29.6667 74.5333 29.68 74.56 29.68C74.5867 29.68 74.6 29.6667 74.6 29.64V12.08C74.6 11.4667 74.8267 10.9333 75.28 10.48C75.7333 10.0267 76.2667 9.8 76.88 9.8H77.76C78.3733 9.8 78.8933 10.0267 79.32 10.48C79.7733 10.9333 80 11.4667 80 12.08V36.72C80 37.3333 79.7733 37.8667 79.32 38.32C78.8933 38.7733 78.3733 39 77.76 39H76.88C75.36 39 74.24 38.3333 73.52 37L63.64 19.16C63.64 19.1333 63.6267 19.12 63.6 19.12C63.5733 19.12 63.56 19.1333 63.56 19.16V36.72C63.56 37.3333 63.3333 37.8667 62.88 38.32C62.4267 38.7733 61.8933 39 61.28 39H60.4ZM94.7641 14.76L91.2441 27.32C91.2174 27.4 91.2307 27.48 91.2841 27.56C91.3374 27.64 91.4041 27.68 91.4841 27.68H98.1241C98.2041 27.68 98.2707 27.64 98.3241 27.56C98.3774 27.48 98.3907 27.4 98.3641 27.32L94.8441 14.76C94.8441 14.7333 94.8307 14.72 94.8041 14.72C94.7774 14.72 94.7641 14.7333 94.7641 14.76ZM84.4041 39C83.8441 39 83.4041 38.7733 83.0841 38.32C82.7641 37.8667 82.6974 37.3733 82.8841 36.84L91.1641 11.96C91.4041 11.32 91.7907 10.8 92.3241 10.4C92.8841 10 93.4974 9.8 94.1641 9.8H95.6041C96.2974 9.8 96.9107 10 97.4441 10.4C98.0041 10.8 98.3907 11.32 98.6041 11.96L106.884 36.84C107.071 37.3733 107.004 37.8667 106.684 38.32C106.364 38.7733 105.924 39 105.364 39H103.924C103.284 39 102.684 38.8 102.124 38.4C101.591 37.9733 101.231 37.44 101.044 36.8L99.7641 32.28C99.7374 32.0667 99.5907 31.96 99.3241 31.96H90.2841C90.0441 31.96 89.8974 32.0667 89.8441 32.28L88.5641 36.8C88.4041 37.44 88.0441 37.9733 87.4841 38.4C86.9507 38.8 86.3507 39 85.6841 39H84.4041ZM106.123 14.44C105.509 14.44 104.976 14.2267 104.523 13.8C104.069 13.3467 103.843 12.8133 103.843 12.2V12.08C103.843 11.4667 104.069 10.9333 104.523 10.48C104.976 10.0267 105.509 9.8 106.123 9.8H123.163C123.776 9.8 124.309 10.0267 124.763 10.48C125.216 10.9333 125.443 11.4667 125.443 12.08V12.2C125.443 12.8133 125.216 13.3467 124.763 13.8C124.309 14.2267 123.776 14.44 123.163 14.44H117.803C117.589 14.44 117.483 14.56 117.483 14.8V36.72C117.483 37.3333 117.256 37.8667 116.803 38.32C116.349 38.7733 115.816 39 115.203 39H114.083C113.469 39 112.936 38.7733 112.483 38.32C112.029 37.8667 111.803 37.3333 111.803 36.72V14.8C111.803 14.56 111.696 14.44 111.483 14.44H106.123ZM134.7 14.36V23.04C134.7 23.2533 134.82 23.36 135.06 23.36H137.06C141.807 23.36 144.18 21.6667 144.18 18.28C144.18 15.2667 141.98 13.76 137.58 13.76C136.78 13.76 135.94 13.8267 135.06 13.96C134.82 14.0133 134.7 14.1467 134.7 14.36ZM131.46 39C130.847 39 130.314 38.7733 129.86 38.32C129.407 37.8667 129.18 37.3333 129.18 36.72V12.28C129.18 11.64 129.394 11.0667 129.82 10.56C130.247 10.0533 130.78 9.77333 131.42 9.72C133.687 9.50667 135.874 9.4 137.98 9.4C141.9 9.4 144.834 10.1333 146.78 11.6C148.727 13.04 149.7 15.08 149.7 17.72C149.7 19.6133 149.18 21.28 148.14 22.72C147.127 24.16 145.754 25.1733 144.02 25.76C143.994 25.76 143.98 25.7733 143.98 25.8C143.98 25.8533 143.994 25.88 144.02 25.88C145.3 26.68 146.394 28.2533 147.3 30.6L149.7 36.88C149.887 37.3867 149.82 37.8667 149.5 38.32C149.207 38.7733 148.794 39 148.26 39H147.02C146.327 39 145.7 38.8133 145.14 38.44C144.58 38.04 144.18 37.52 143.94 36.88L141.7 30.72C141.22 29.44 140.674 28.6 140.06 28.2C139.447 27.8 138.394 27.6 136.9 27.6H135.06C134.82 27.6 134.7 27.72 134.7 27.96V36.72C134.7 37.3333 134.474 37.8667 134.02 38.32C133.594 38.7733 133.074 39 132.46 39H131.46ZM173.741 28.6C173.741 35.8 170.141 39.4 162.941 39.4C155.741 39.4 152.141 35.8 152.141 28.6V12.08C152.141 11.4667 152.368 10.9333 152.821 10.48C153.275 10.0267 153.808 9.8 154.421 9.8H155.541C156.155 9.8 156.688 10.0267 157.141 10.48C157.595 10.9333 157.821 11.4667 157.821 12.08V28.92C157.821 31 158.235 32.5067 159.061 33.44C159.915 34.3467 161.235 34.8 163.021 34.8C164.808 34.8 166.115 34.3467 166.941 33.44C167.795 32.5067 168.221 31 168.221 28.92V12.08C168.221 11.4667 168.448 10.9333 168.901 10.48C169.355 10.0267 169.888 9.8 170.501 9.8H171.461C172.075 9.8 172.608 10.0267 173.061 10.48C173.515 10.9333 173.741 11.4667 173.741 12.08V28.6ZM180.331 39C179.717 39 179.184 38.7733 178.731 38.32C178.277 37.8667 178.051 37.3333 178.051 36.72V12.08C178.051 11.4667 178.277 10.9333 178.731 10.48C179.184 10.0267 179.717 9.8 180.331 9.8H181.331C182.024 9.8 182.664 9.98667 183.251 10.36C183.837 10.7333 184.264 11.2267 184.531 11.84L191.531 26.96C191.531 26.9867 191.544 27 191.571 27C191.597 27 191.611 26.9867 191.611 26.96L198.611 11.84C198.877 11.2267 199.304 10.7333 199.891 10.36C200.477 9.98667 201.117 9.8 201.811 9.8H202.971C203.584 9.8 204.117 10.0267 204.571 10.48C205.024 10.9333 205.251 11.4667 205.251 12.08V36.72C205.251 37.3333 205.024 37.8667 204.571 38.32C204.117 38.7733 203.584 39 202.971 39H202.091C201.477 39 200.944 38.7733 200.491 38.32C200.037 37.8667 199.811 37.3333 199.811 36.72V19.32C199.811 19.2933 199.797 19.28 199.771 19.28C199.744 19.28 199.731 19.2933 199.731 19.32L194.931 29.6C194.637 30.2133 194.184 30.72 193.571 31.12C192.984 31.4933 192.357 31.68 191.691 31.68H191.451C190.784 31.68 190.144 31.4933 189.531 31.12C188.944 30.72 188.504 30.2133 188.211 29.6L183.411 19.32C183.411 19.2933 183.397 19.28 183.371 19.28C183.344 19.28 183.331 19.2933 183.331 19.32V36.72C183.331 37.3333 183.104 37.8667 182.651 38.32C182.197 38.7733 181.664 39 181.051 39H180.331ZM220.006 14.76L216.486 27.32C216.46 27.4 216.473 27.48 216.526 27.56C216.58 27.64 216.646 27.68 216.726 27.68H223.366C223.446 27.68 223.513 27.64 223.566 27.56C223.62 27.48 223.633 27.4 223.606 27.32L220.086 14.76C220.086 14.7333 220.073 14.72 220.046 14.72C220.02 14.72 220.006 14.7333 220.006 14.76ZM209.646 39C209.086 39 208.646 38.7733 208.326 38.32C208.006 37.8667 207.94 37.3733 208.126 36.84L216.406 11.96C216.646 11.32 217.033 10.8 217.566 10.4C218.126 10 218.74 9.8 219.406 9.8H220.846C221.54 9.8 222.153 10 222.686 10.4C223.246 10.8 223.633 11.32 223.846 11.96L232.126 36.84C232.313 37.3733 232.246 37.8667 231.926 38.32C231.606 38.7733 231.166 39 230.606 39H229.166C228.526 39 227.926 38.8 227.366 38.4C226.833 37.9733 226.473 37.44 226.286 36.8L225.006 32.28C224.98 32.0667 224.833 31.96 224.566 31.96H215.526C215.286 31.96 215.14 32.0667 215.086 32.28L213.806 36.8C213.646 37.44 213.286 37.9733 212.726 38.4C212.193 38.8 211.593 39 210.926 39H209.646ZM235.41 39C234.903 39 234.516 38.7867 234.25 38.36C233.983 37.9067 233.97 37.4533 234.21 37L240.89 24.52C240.996 24.36 240.996 24.16 240.89 23.92L234.41 11.8C234.17 11.3467 234.183 10.9067 234.45 10.48C234.716 10.0267 235.103 9.8 235.61 9.8H237.33C238.023 9.8 238.663 9.98667 239.25 10.36C239.836 10.7333 240.276 11.2267 240.57 11.84L244.77 20.68C244.77 20.7067 244.783 20.72 244.81 20.72C244.836 20.72 244.85 20.7067 244.85 20.68L249.05 11.84C249.343 11.2267 249.783 10.7333 250.37 10.36C250.956 9.98667 251.596 9.8 252.29 9.8H253.85C254.383 9.8 254.77 10.0267 255.01 10.48C255.276 10.9067 255.29 11.3467 255.05 11.8L248.57 23.92C248.49 24.1067 248.49 24.3067 248.57 24.52L255.25 37C255.49 37.4533 255.476 37.9067 255.21 38.36C254.97 38.7867 254.583 39 254.05 39H252.21C251.516 39 250.863 38.8133 250.25 38.44C249.663 38.0667 249.236 37.5733 248.97 36.96L244.69 27.72C244.69 27.6933 244.676 27.68 244.65 27.68C244.623 27.68 244.61 27.6933 244.61 27.72L240.33 36.96C240.063 37.5733 239.623 38.0667 239.01 38.44C238.423 38.8133 237.783 39 237.09 39H235.41Z" fill="#F8FAFC"/>
</svg>
