<svg width="48" height="48" viewBox="0 0 48 48" fill="none" xmlns="http://www.w3.org/2000/svg">
<path fill-rule="evenodd" clip-rule="evenodd" d="M47 24C47 36.7026 36.7026 47 24 47C11.2975 47 1 36.7026 1 24C1 11.2975 11.2975 1 24 1C36.7026 1 47 11.2975 47 24ZM48 24C48 37.2548 37.2548 48 24 48C10.7452 48 0 37.2548 0 24C0 10.7452 10.7452 0 24 0C37.2548 0 48 10.7452 48 24ZM20.3274 2.66399C20.1633 2.44934 19.1405 2.7654 18.7869 2.87865C18.7662 2.8853 18.7226 2.89696 18.6581 2.91422L18.6581 2.91423C17.6237 3.191 11.2069 4.90803 7.09451 10.5179C2.99468 16.1107 2.69574 19.9172 2.55107 21.7594C2.54158 21.8804 2.53275 21.9928 2.52355 22.0968C2.14475 26.3773 3.57156 31.7563 4.88475 34.1933C5.78969 35.8727 8.06671 38.945 9.35465 39.9386C9.79659 40.2795 10.6759 40.4 11.1729 40.1785C12.3346 39.6608 13.3715 39.418 15.0746 39.3198C16.3765 39.2448 17.2229 39.3909 18.4321 39.5998L18.4322 39.5998C18.547 39.6196 18.665 39.64 18.7869 39.6608C20.2035 39.9024 21.0741 40.1953 22.1766 40.5661L22.1766 40.5661L22.177 40.5663C22.5746 40.7 23.0023 40.8439 23.4968 40.9992C24.1974 41.2193 24.7913 41.4221 25.355 41.6147C26.3922 41.9689 27.327 42.2882 28.6359 42.6155C28.769 42.6487 28.8987 42.6816 29.0256 42.7137C30.5301 43.0947 31.6398 43.3757 33.4215 43.1079C34.108 43.0047 34.3102 42.8573 34.7277 42.5528L34.7278 42.5527C34.8343 42.475 34.9548 42.3871 35.1009 42.2872C35.3408 42.123 35.7631 41.5927 35.7827 41.4159C35.8248 41.0373 35.7701 40.6709 35.3661 40.3679C34.962 40.0648 34.9367 39.8628 34.9999 39.6608C35.0684 39.4414 35.3534 39.4335 35.5428 39.4335C35.7322 39.4335 36.3004 39.484 36.5025 39.9638C36.5901 40.1719 36.6025 40.4385 36.6128 40.6607C36.6262 40.9509 36.6361 41.1653 36.8055 41.075C37.0076 40.9672 37.0707 40.8351 37.1212 40.6457C37.1717 40.4563 37.2222 39.888 37.0454 39.6103C36.8687 39.3325 36.6035 38.9284 36.4393 38.7011C36.2752 38.4738 36.0984 38.1708 36.0984 37.7415C36.0984 37.3122 36.4015 37.1859 36.5025 37.1859L36.5221 37.1857C36.6222 37.1842 36.7598 37.1821 36.8308 37.5016C36.8696 37.6764 36.8553 37.8147 36.8441 37.9233C36.8335 38.0265 36.8256 38.1028 36.8687 38.1582C36.957 38.2718 37.1212 38.3097 37.2222 38.1203C37.3232 37.9309 37.399 37.5773 37.298 37.2238C37.197 36.8702 37.0707 36.7061 36.7676 36.4283C36.4646 36.1505 35.808 35.9485 35.4544 35.8474C35.4087 35.8344 35.3656 35.8226 35.3249 35.8115L35.3246 35.8114C35.051 35.7367 34.8923 35.6933 34.8484 35.5065C34.7978 35.2919 34.8105 35.1908 34.962 34.9762C35.1135 34.7615 35.8459 34.4332 36.7676 34.4964C37.6894 34.5595 38.1692 34.6605 38.7122 35.1151C39.2551 35.5697 39.7476 36.201 39.9875 36.8576C40.2274 37.5142 40.4042 38.7895 40.4042 38.7895C40.4042 38.7895 41.6669 37.5647 43.2579 35.052C44.8489 32.5392 46.1747 27.4379 46.1747 25.405C46.1747 25.2511 46.1776 25.0757 46.1808 24.8802L46.1808 24.8798C46.2203 22.4937 46.3094 17.1041 41.7931 10.8841C36.9065 4.15397 29.1536 2.63874 28.7243 2.56298C28.295 2.48723 27.9667 2.55035 27.8783 2.664C27.7899 2.77764 27.752 2.92916 27.8783 3.33322C27.8925 3.37873 27.9061 3.42104 27.9189 3.4609C28.0197 3.77493 28.0718 3.93716 28.0046 4.31811C27.9288 4.74743 27.1586 5.34089 26.8555 5.55555C26.5525 5.77021 25.7065 6.3763 25.5297 6.85612C25.3529 7.33594 25.5549 8.03042 25.8075 8.586C26.06 9.14158 26.1989 9.5709 26.1484 10.1391C26.0979 10.7073 25.5423 11.023 25.0877 11.225C24.6332 11.427 23.9387 11.4018 23.5473 11.3639C23.1558 11.326 22.4487 10.8588 22.2593 10.2906C22.083 9.76156 22.3117 9.25438 22.5581 8.70794C22.5763 8.66752 22.5946 8.62688 22.6129 8.586C22.878 7.99254 23.1937 7.2223 22.9917 6.81824C22.7897 6.41418 22.3351 6.06062 21.5775 5.63131L21.5722 5.6283C20.8183 5.20109 20.478 5.00826 20.3274 4.31811C20.2441 3.93641 20.4032 3.32059 20.4032 3.32059C20.4032 3.32059 20.4916 2.87865 20.3274 2.66399ZM32.3762 13.2991H31.1796H29.983C29.983 12.6382 30.5187 12.1025 31.1796 12.1025C31.8404 12.1025 32.3762 12.6382 32.3762 13.2991ZM32.3762 13.2992V28.8546H31.9931H30.3767H29.9931V28.8547H29.983V13.2992H32.3762ZM18.0082 28.8547H18.0178V13.2992H15.6246V21.0769V28.8546H16.0082H17.6246H18.0082V28.8547ZM18.0082 28.8547C18.0082 29.6416 18.1632 30.4208 18.4644 31.1478C18.7655 31.8748 19.2069 32.5354 19.7634 33.0919C20.3198 33.6483 20.9804 34.0897 21.7075 34.3909C22.4345 34.692 23.2137 34.847 24.0007 34.847C24.7876 34.847 25.5669 34.692 26.2939 34.3909C27.0209 34.0897 27.6815 33.6483 28.238 33.0919C28.7944 32.5354 29.2358 31.8748 29.537 31.1478C29.8381 30.4208 29.9931 29.6416 29.9931 28.8547H32.3762V28.8546H32.3767C32.3767 29.5301 32.295 30.2016 32.1345 30.8546C32.0336 31.2649 31.9016 31.6678 31.7392 32.06C31.3182 33.0762 30.7012 33.9996 29.9235 34.7774C29.1457 35.5551 28.2223 36.1721 27.2061 36.5931C26.1898 37.014 25.1006 37.2307 24.0007 37.2307C22.9007 37.2307 21.8115 37.014 20.7953 36.5931C19.7791 36.1721 18.8557 35.5551 18.0779 34.7774C17.3001 33.9996 16.6831 33.0762 16.2622 32.06C16.0998 31.6678 15.9678 31.2649 15.8669 30.8546C15.7063 30.2016 15.6246 29.5302 15.6246 28.8547H18.0082ZM28.7861 27.658C28.7861 30.3014 26.6432 32.4444 23.9998 32.4444C21.3564 32.4444 19.2135 30.3014 19.2135 27.658C19.2135 25.0146 21.3564 22.8717 23.9998 22.8717C26.6432 22.8717 28.7861 25.0146 28.7861 27.658ZM32.8736 40.5812C32.8736 40.5812 32.6205 40.2696 31.8872 40.2697C31.6457 40.2697 31.4706 40.3204 31.3324 40.3605C31.128 40.4197 31.0042 40.4555 30.8657 40.2697C30.5429 39.8363 31.0787 39.3846 31.677 39.3846C32.2753 39.3846 32.8736 40.2508 32.8736 40.5812ZM16.8212 13.2991H18.0178C18.0178 12.6382 17.482 12.1025 16.8212 12.1025C16.1603 12.1025 15.6246 12.6382 15.6246 13.2991H16.8212Z" fill="#F8FAFC"/>
</svg>
