<svg width="209" height="40" viewBox="0 0 209 40" fill="none" xmlns="http://www.w3.org/2000/svg">
<path fill-rule="evenodd" clip-rule="evenodd" d="M39 20C39 30.4934 30.4934 39 20 39C9.50659 39 1 30.4934 1 20C1 9.50659 9.50659 1 20 1C30.4934 1 39 9.50659 39 20ZM40 20C40 31.0457 31.0457 40 20 40C8.9543 40 0 31.0457 0 20C0 8.9543 8.9543 0 20 0C31.0457 0 40 8.9543 40 20ZM16.9396 2.21999C16.8028 2.04111 15.9505 2.3045 15.6559 2.39887C15.6386 2.40442 15.6023 2.41413 15.5485 2.42852C14.6866 2.65917 9.33921 4.09002 5.91221 8.76493C2.49569 13.4256 2.24658 16.5977 2.12602 18.1328L2.12601 18.1329C2.1181 18.2337 2.11074 18.3274 2.10308 18.414C1.78742 21.9811 2.97642 26.4636 4.07074 28.4944C4.82486 29.8939 6.72238 32.4542 7.79567 33.2821C8.16395 33.5662 8.89669 33.6666 9.31089 33.482C10.279 33.0506 11.1431 32.8483 12.5623 32.7665C13.6472 32.704 14.3525 32.8258 15.3601 32.9998L15.3602 32.9998C15.4558 33.0163 15.5542 33.0333 15.6559 33.0506C16.8364 33.252 17.5619 33.496 18.4806 33.8051L18.4808 33.8052C18.8122 33.9166 19.1687 34.0366 19.5808 34.166C20.1645 34.3494 20.6594 34.5184 21.1291 34.6788L21.1293 34.6789C21.9936 34.9741 22.7726 35.2402 23.8634 35.5129C23.9743 35.5406 24.0824 35.568 24.1881 35.5947C25.4418 35.9122 26.3667 36.1464 27.8514 35.9232C28.4235 35.8372 28.5919 35.7144 28.9398 35.4606C29.0286 35.3959 29.129 35.3226 29.2509 35.2393C29.4508 35.1025 29.8027 34.6606 29.8191 34.5132C29.8541 34.1977 29.8085 33.8924 29.4718 33.6399C29.1351 33.3873 29.1141 33.219 29.1667 33.0506C29.2238 32.8678 29.4613 32.8612 29.6191 32.8612C29.777 32.8612 30.2505 32.9033 30.4188 33.3032C30.4919 33.4766 30.5022 33.6988 30.5107 33.8839C30.522 34.1257 30.5302 34.3044 30.6714 34.2291C30.8397 34.1394 30.8924 34.0292 30.9344 33.8714C30.9765 33.7135 31.0186 33.24 30.8713 33.0085C30.724 32.777 30.503 32.4403 30.3662 32.2509C30.2294 32.0615 30.0821 31.809 30.0821 31.4512C30.0821 31.0935 30.3347 30.9882 30.4188 30.9882L30.4352 30.9881C30.5186 30.9868 30.6333 30.9851 30.6924 31.2513C30.7248 31.397 30.7129 31.5123 30.7036 31.6028C30.6947 31.6887 30.6881 31.7523 30.724 31.7985C30.7977 31.8932 30.9344 31.9247 31.0186 31.7669C31.1028 31.6091 31.1659 31.3144 31.0818 31.0198C30.9976 30.7252 30.8924 30.5884 30.6398 30.3569C30.3873 30.1254 29.8401 29.957 29.5455 29.8729C29.5073 29.862 29.4712 29.8521 29.4373 29.8428C29.2093 29.7806 29.077 29.7444 29.0404 29.5888C28.9983 29.4099 29.0088 29.3257 29.1351 29.1468C29.2614 28.9679 29.8717 28.6944 30.6398 28.747C31.408 28.7996 31.8078 28.8838 32.2603 29.2626C32.7127 29.6414 33.1231 30.1675 33.323 30.7147C33.523 31.2618 33.6703 32.3246 33.6703 32.3246C33.6703 32.3246 34.7225 31.3039 36.0483 29.21C37.3742 27.116 38.479 22.8649 38.479 21.1708C38.479 21.0424 38.4814 20.8962 38.4841 20.7331C38.517 18.7447 38.5913 14.2534 34.8277 9.07007C30.7556 3.46164 24.2948 2.19895 23.937 2.13582C23.5793 2.07269 23.3057 2.12529 23.232 2.22C23.1584 2.3147 23.1268 2.44097 23.232 2.77768C23.2438 2.8154 23.2551 2.85049 23.2657 2.88355L23.2659 2.88409C23.3499 3.14578 23.3933 3.28097 23.3372 3.59843C23.2741 3.95619 22.6322 4.45074 22.3797 4.62962C22.1272 4.8085 21.4222 5.31358 21.2749 5.71343C21.1275 6.11328 21.2959 6.69201 21.5064 7.155C21.7168 7.61798 21.8325 7.97574 21.7905 8.44925C21.7484 8.92276 21.2854 9.18582 20.9066 9.35418C20.5278 9.52254 19.949 9.50149 19.6228 9.46992C19.2966 9.43836 18.7074 9.04903 18.5496 8.57552C18.4026 8.13463 18.5932 7.71198 18.7985 7.25661L18.8442 7.155C19.0652 6.66045 19.3282 6.01858 19.1599 5.68186C18.9915 5.34515 18.6127 5.05052 17.9813 4.69276L17.9769 4.69024C17.3487 4.33424 17.0651 4.17355 16.9396 3.59843C16.8702 3.28034 17.0028 2.76716 17.0028 2.76716C17.0028 2.76716 17.0764 2.39887 16.9396 2.21999ZM26.9803 11.0826H25.9831H24.986C24.986 10.5319 25.4324 10.0854 25.9831 10.0854C26.5338 10.0854 26.9803 10.5319 26.9803 11.0826ZM26.9803 11.0826V24.0455H24.9944V24.0456H24.986V11.0826H26.9803ZM15.007 24.0456H15.0149V11.0826H13.0206V17.5641V24.0455H15.007V24.0456ZM15.007 24.0456C15.007 24.7013 15.1362 25.3507 15.3871 25.9565C15.6381 26.5624 16.0059 27.1129 16.4696 27.5766C16.9333 28.0403 17.4838 28.4081 18.0897 28.6591C18.6955 28.91 19.3449 29.0392 20.0007 29.0392C20.6565 29.0392 21.3058 28.91 21.9117 28.6591C22.5176 28.4081 23.0681 28.0403 23.5318 27.5766C23.9955 27.1129 24.3633 26.5624 24.6143 25.9565C24.8652 25.3507 24.9944 24.7013 24.9944 24.0456H26.9803V24.0455H26.9807C26.9807 24.7241 26.8818 25.3978 26.6881 26.0455C26.6201 26.2727 26.5405 26.4967 26.4494 26.7166C26.0986 27.5635 25.5845 28.333 24.9363 28.9811C24.2882 29.6293 23.5187 30.1434 22.6718 30.4942C21.825 30.845 20.9173 31.0255 20.0007 31.0255C19.0841 31.0255 18.1764 30.845 17.3295 30.4942C16.4827 30.1434 15.7132 29.6293 15.065 28.9811C14.4169 28.333 13.9027 27.5635 13.552 26.7166C13.4609 26.4967 13.3812 26.2727 13.3133 26.0455C13.1196 25.3978 13.0206 24.7241 13.0206 24.0456H15.007ZM23.9886 23.0484C23.9886 25.2512 22.2028 27.037 20 27.037C17.7971 27.037 16.0114 25.2512 16.0114 23.0484C16.0114 20.8455 17.7971 19.0598 20 19.0598C22.2028 19.0598 23.9886 20.8455 23.9886 23.0484ZM27.3949 33.8177C27.3949 33.8177 27.184 33.558 26.5729 33.5581C26.3717 33.5581 26.2258 33.6004 26.1106 33.6338C25.9402 33.6831 25.837 33.713 25.7217 33.5581C25.4527 33.1969 25.8992 32.8205 26.3977 32.8205C26.8963 32.8205 27.3949 33.5423 27.3949 33.8177ZM14.0178 11.0826H15.0149C15.0149 10.5319 14.5685 10.0854 14.0178 10.0854C13.4671 10.0854 13.0206 10.5319 13.0206 11.0826H14.0178Z" fill="#F8FAFC"/>
<path d="M51.32 32C50.8293 32 50.4027 31.8187 50.04 31.456C49.6987 31.0933 49.528 30.6667 49.528 30.176V10.464C49.528 9.97333 49.6987 9.54667 50.04 9.184C50.4027 8.82133 50.8293 8.64 51.32 8.64H52.024C53.24 8.64 54.136 9.17333 54.712 10.24L62.616 24.512C62.616 24.5333 62.6267 24.544 62.648 24.544C62.6693 24.544 62.68 24.5333 62.68 24.512V10.464C62.68 9.97333 62.8613 9.54667 63.224 9.184C63.5867 8.82133 64.0133 8.64 64.504 8.64H65.208C65.6987 8.64 66.1147 8.82133 66.456 9.184C66.8187 9.54667 67 9.97333 67 10.464V30.176C67 30.6667 66.8187 31.0933 66.456 31.456C66.1147 31.8187 65.6987 32 65.208 32H64.504C63.288 32 62.392 31.4667 61.816 30.4L53.912 16.128C53.912 16.1067 53.9013 16.096 53.88 16.096C53.8587 16.096 53.848 16.1067 53.848 16.128V30.176C53.848 30.6667 53.6667 31.0933 53.304 31.456C52.9413 31.8187 52.5147 32 52.024 32H51.32ZM78.8112 12.608L75.9952 22.656C75.9739 22.72 75.9846 22.784 76.0272 22.848C76.0699 22.912 76.1232 22.944 76.1872 22.944H81.4993C81.5633 22.944 81.6166 22.912 81.6593 22.848C81.7019 22.784 81.7126 22.72 81.6912 22.656L78.8752 12.608C78.8752 12.5867 78.8646 12.576 78.8433 12.576C78.8219 12.576 78.8112 12.5867 78.8112 12.608ZM70.5232 32C70.0752 32 69.7232 31.8187 69.4672 31.456C69.2112 31.0933 69.1579 30.6987 69.3072 30.272L75.9312 10.368C76.1232 9.856 76.4326 9.44 76.8593 9.12C77.3073 8.8 77.7979 8.64 78.3313 8.64H79.4832C80.0379 8.64 80.5286 8.8 80.9552 9.12C81.4032 9.44 81.7126 9.856 81.8833 10.368L88.5072 30.272C88.6566 30.6987 88.6033 31.0933 88.3472 31.456C88.0913 31.8187 87.7393 32 87.2913 32H86.1392C85.6273 32 85.1472 31.84 84.6992 31.52C84.2726 31.1787 83.9846 30.752 83.8352 30.24L82.8112 26.624C82.7899 26.4533 82.6726 26.368 82.4593 26.368H75.2272C75.0352 26.368 74.9179 26.4533 74.8752 26.624L73.8512 30.24C73.7232 30.752 73.4352 31.1787 72.9872 31.52C72.5606 31.84 72.0806 32 71.5472 32H70.5232ZM87.8982 12.352C87.4076 12.352 86.9809 12.1813 86.6182 11.84C86.2556 11.4773 86.0742 11.0507 86.0742 10.56V10.464C86.0742 9.97333 86.2556 9.54667 86.6182 9.184C86.9809 8.82133 87.4076 8.64 87.8982 8.64H101.53C102.021 8.64 102.448 8.82133 102.81 9.184C103.173 9.54667 103.354 9.97333 103.354 10.464V10.56C103.354 11.0507 103.173 11.4773 102.81 11.84C102.448 12.1813 102.021 12.352 101.53 12.352H97.2422C97.0716 12.352 96.9862 12.448 96.9862 12.64V30.176C96.9862 30.6667 96.8049 31.0933 96.4422 31.456C96.0796 31.8187 95.6529 32 95.1622 32H94.2662C93.7756 32 93.3489 31.8187 92.9862 31.456C92.6236 31.0933 92.4422 30.6667 92.4422 30.176V12.64C92.4422 12.448 92.3569 12.352 92.1862 12.352H87.8982ZM110.76 12.288V19.232C110.76 19.4027 110.856 19.488 111.048 19.488H112.648C116.446 19.488 118.344 18.1333 118.344 15.424C118.344 13.0133 116.584 11.808 113.064 11.808C112.424 11.808 111.752 11.8613 111.048 11.968C110.856 12.0107 110.76 12.1173 110.76 12.288ZM108.168 32C107.678 32 107.251 31.8187 106.888 31.456C106.526 31.0933 106.344 30.6667 106.344 30.176V10.624C106.344 10.112 106.515 9.65333 106.856 9.248C107.198 8.84267 107.624 8.61867 108.136 8.576C109.95 8.40533 111.699 8.32 113.384 8.32C116.52 8.32 118.867 8.90667 120.424 10.08C121.982 11.232 122.76 12.864 122.76 14.976C122.76 16.4907 122.344 17.824 121.512 18.976C120.702 20.128 119.603 20.9387 118.216 21.408C118.195 21.408 118.184 21.4187 118.184 21.44C118.184 21.4827 118.195 21.504 118.216 21.504C119.24 22.144 120.115 23.4027 120.84 25.28L122.76 30.304C122.91 30.7093 122.856 31.0933 122.6 31.456C122.366 31.8187 122.035 32 121.608 32H120.616C120.062 32 119.56 31.8507 119.112 31.552C118.664 31.232 118.344 30.816 118.152 30.304L116.36 25.376C115.976 24.352 115.539 23.68 115.048 23.36C114.558 23.04 113.715 22.88 112.52 22.88H111.048C110.856 22.88 110.76 22.976 110.76 23.168V30.176C110.76 30.6667 110.579 31.0933 110.216 31.456C109.875 31.8187 109.459 32 108.968 32H108.168ZM141.993 23.68C141.993 29.44 139.113 32.32 133.353 32.32C127.593 32.32 124.713 29.44 124.713 23.68V10.464C124.713 9.97333 124.894 9.54667 125.257 9.184C125.62 8.82133 126.046 8.64 126.537 8.64H127.433C127.924 8.64 128.35 8.82133 128.713 9.184C129.076 9.54667 129.257 9.97333 129.257 10.464V23.936C129.257 25.6 129.588 26.8053 130.249 27.552C130.932 28.2773 131.988 28.64 133.417 28.64C134.846 28.64 135.892 28.2773 136.553 27.552C137.236 26.8053 137.577 25.6 137.577 23.936V10.464C137.577 9.97333 137.758 9.54667 138.121 9.184C138.484 8.82133 138.91 8.64 139.401 8.64H140.169C140.66 8.64 141.086 8.82133 141.449 9.184C141.812 9.54667 141.993 9.97333 141.993 10.464V23.68ZM147.264 32C146.774 32 146.347 31.8187 145.984 31.456C145.622 31.0933 145.44 30.6667 145.44 30.176V10.464C145.44 9.97333 145.622 9.54667 145.984 9.184C146.347 8.82133 146.774 8.64 147.264 8.64H148.064C148.619 8.64 149.131 8.78933 149.6 9.088C150.07 9.38667 150.411 9.78133 150.624 10.272L156.224 22.368C156.224 22.3893 156.235 22.4 156.256 22.4C156.278 22.4 156.288 22.3893 156.288 22.368L161.889 10.272C162.102 9.78133 162.443 9.38667 162.912 9.088C163.382 8.78933 163.894 8.64 164.448 8.64H165.376C165.867 8.64 166.294 8.82133 166.656 9.184C167.019 9.54667 167.201 9.97333 167.201 10.464V30.176C167.201 30.6667 167.019 31.0933 166.656 31.456C166.294 31.8187 165.867 32 165.376 32H164.672C164.182 32 163.755 31.8187 163.392 31.456C163.03 31.0933 162.848 30.6667 162.848 30.176V16.256C162.848 16.2347 162.838 16.224 162.816 16.224C162.795 16.224 162.785 16.2347 162.785 16.256L158.944 24.48C158.71 24.9707 158.347 25.376 157.856 25.696C157.387 25.9947 156.886 26.144 156.352 26.144H156.16C155.627 26.144 155.115 25.9947 154.624 25.696C154.155 25.376 153.803 24.9707 153.568 24.48L149.728 16.256C149.728 16.2347 149.718 16.224 149.696 16.224C149.675 16.224 149.664 16.2347 149.664 16.256V30.176C149.664 30.6667 149.483 31.0933 149.12 31.456C148.758 31.8187 148.331 32 147.84 32H147.264ZM179.005 12.608L176.189 22.656C176.168 22.72 176.178 22.784 176.221 22.848C176.264 22.912 176.317 22.944 176.381 22.944H181.693C181.757 22.944 181.81 22.912 181.853 22.848C181.896 22.784 181.906 22.72 181.885 22.656L179.069 12.608C179.069 12.5867 179.058 12.576 179.037 12.576C179.016 12.576 179.005 12.5867 179.005 12.608ZM170.717 32C170.269 32 169.917 31.8187 169.661 31.456C169.405 31.0933 169.352 30.6987 169.501 30.272L176.125 10.368C176.317 9.856 176.626 9.44 177.053 9.12C177.501 8.8 177.992 8.64 178.525 8.64H179.677C180.232 8.64 180.722 8.8 181.149 9.12C181.597 9.44 181.906 9.856 182.077 10.368L188.701 30.272C188.85 30.6987 188.797 31.0933 188.541 31.456C188.285 31.8187 187.933 32 187.485 32H186.333C185.821 32 185.341 31.84 184.893 31.52C184.466 31.1787 184.178 30.752 184.029 30.24L183.005 26.624C182.984 26.4533 182.866 26.368 182.653 26.368H175.421C175.229 26.368 175.112 26.4533 175.069 26.624L174.045 30.24C173.917 30.752 173.629 31.1787 173.181 31.52C172.754 31.84 172.274 32 171.741 32H170.717ZM191.328 32C190.922 32 190.613 31.8293 190.4 31.488C190.186 31.1253 190.176 30.7627 190.368 30.4L195.712 20.416C195.797 20.288 195.797 20.128 195.712 19.936L190.528 10.24C190.336 9.87733 190.346 9.52533 190.56 9.184C190.773 8.82133 191.082 8.64 191.488 8.64H192.864C193.418 8.64 193.93 8.78933 194.4 9.088C194.869 9.38667 195.221 9.78133 195.456 10.272L198.816 17.344C198.816 17.3653 198.826 17.376 198.848 17.376C198.869 17.376 198.88 17.3653 198.88 17.344L202.24 10.272C202.474 9.78133 202.826 9.38667 203.296 9.088C203.765 8.78933 204.277 8.64 204.832 8.64H206.08C206.506 8.64 206.816 8.82133 207.008 9.184C207.221 9.52533 207.232 9.87733 207.04 10.24L201.856 19.936C201.792 20.0853 201.792 20.2453 201.856 20.416L207.2 30.4C207.392 30.7627 207.381 31.1253 207.168 31.488C206.976 31.8293 206.666 32 206.24 32H204.768C204.213 32 203.69 31.8507 203.2 31.552C202.73 31.2533 202.389 30.8587 202.176 30.368L198.752 22.976C198.752 22.9547 198.741 22.944 198.72 22.944C198.698 22.944 198.688 22.9547 198.688 22.976L195.264 30.368C195.05 30.8587 194.698 31.2533 194.208 31.552C193.738 31.8507 193.226 32 192.672 32H191.328Z" fill="#F8FAFC"/>
</svg>
