<svg width="161" height="32" viewBox="0 0 161 32" fill="none" xmlns="http://www.w3.org/2000/svg">
<path fill-rule="evenodd" clip-rule="evenodd" d="M31 16C31 24.2843 24.2843 31 16 31C7.71573 31 1 24.2843 1 16C1 7.71573 7.71573 1 16 1C24.2843 1 31 7.71573 31 16ZM32 16C32 24.8366 24.8366 32 16 32C7.16344 32 0 24.8366 0 16C0 7.16344 7.16344 0 16 0C24.8366 0 32 7.16344 32 16ZM13.4399 2.08569C13.3348 1.9485 12.6799 2.15049 12.4535 2.22287C12.4402 2.22712 12.4123 2.23457 12.371 2.24561C11.7087 2.42248 7.59987 3.5198 4.96661 7.10494C2.34139 10.6791 2.14998 13.1118 2.05734 14.2891L2.05734 14.2892C2.05126 14.3664 2.0456 14.4383 2.03972 14.5047C1.79717 17.2403 2.71078 20.6779 3.55164 22.2353C4.1311 23.3086 5.58913 25.272 6.41383 25.9069C6.69681 26.1248 7.25984 26.2018 7.57811 26.0603C8.32195 25.7294 8.98593 25.5743 10.0765 25.5115C10.9101 25.4636 11.452 25.557 12.2263 25.6904C12.2998 25.7031 12.3754 25.7161 12.4535 25.7294C13.3606 25.8838 13.9181 26.071 14.624 26.308L14.624 26.308L14.6242 26.3081C14.8788 26.3936 15.1527 26.4855 15.4693 26.5848C15.918 26.7254 16.2982 26.8551 16.6592 26.9781C17.3233 27.2045 17.9219 27.4086 18.76 27.6177C18.8453 27.639 18.9283 27.6599 19.0096 27.6805C19.9729 27.924 20.6835 28.1036 21.8244 27.9324C22.264 27.8664 22.3934 27.7722 22.6607 27.5776C22.7289 27.528 22.8061 27.4718 22.8997 27.4079C23.0533 27.303 23.3237 26.9641 23.3363 26.8511C23.3633 26.6091 23.3282 26.375 23.0695 26.1813C22.8108 25.9876 22.7946 25.8585 22.835 25.7294C22.8789 25.5892 23.0614 25.5842 23.1827 25.5842C23.304 25.5842 23.6678 25.6164 23.7972 25.9231C23.8533 26.0561 23.8612 26.2265 23.8678 26.3685C23.8764 26.5539 23.8828 26.6909 23.9912 26.6332C24.1206 26.5643 24.161 26.4799 24.1934 26.3588C24.2257 26.2378 24.258 25.8747 24.1449 25.6971C24.0317 25.5196 23.8619 25.2614 23.7568 25.1161C23.6516 24.9709 23.5385 24.7772 23.5385 24.5029C23.5385 24.2285 23.7325 24.1478 23.7972 24.1478L23.8097 24.1477C23.8739 24.1467 23.9619 24.1453 24.0074 24.3495C24.0323 24.4613 24.0231 24.5497 24.016 24.6191C24.0091 24.685 24.0041 24.7338 24.0317 24.7691C24.0883 24.8418 24.1934 24.866 24.258 24.7449C24.3227 24.6239 24.3712 24.3979 24.3066 24.172C24.2419 23.9461 24.161 23.8412 23.967 23.6636C23.7729 23.4861 23.3525 23.357 23.1261 23.2924C23.0968 23.284 23.069 23.2765 23.0429 23.2694C22.8678 23.2216 22.7662 23.1939 22.738 23.0745C22.7057 22.9374 22.7138 22.8728 22.8108 22.7356C22.9078 22.5984 23.3768 22.3886 23.967 22.429C24.5572 22.4693 24.8644 22.5339 25.2121 22.8244C25.5598 23.1149 25.8751 23.5184 26.0287 23.938C26.1824 24.3576 26.2955 25.1726 26.2955 25.1726C26.2955 25.1726 27.1041 24.3899 28.1228 22.784C29.1416 21.1782 29.9905 17.9181 29.9905 16.6189C29.9905 16.5205 29.9924 16.4083 29.9944 16.2833V16.2832C30.0197 14.7584 30.0768 11.314 27.1849 7.33895C24.0559 3.03789 19.0916 2.06955 18.8167 2.02113C18.5418 1.97272 18.3315 2.01306 18.2749 2.08569C18.2183 2.15832 18.1941 2.25515 18.2749 2.51337C18.284 2.54237 18.2927 2.56934 18.3008 2.59475L18.3009 2.59498C18.3655 2.79566 18.3988 2.89934 18.3558 3.1428C18.3073 3.41716 17.8141 3.79643 17.62 3.93361C17.426 4.07079 16.8843 4.45813 16.7711 4.76477C16.6579 5.07141 16.7872 5.51524 16.9489 5.8703C17.1106 6.22536 17.1996 6.49972 17.1672 6.86285C17.1349 7.22598 16.7791 7.42772 16.4881 7.55683C16.197 7.68594 15.7523 7.6698 15.5017 7.64559C15.251 7.62139 14.7983 7.32281 14.677 6.95968C14.564 6.62157 14.7105 6.29744 14.8683 5.94822L14.9034 5.8703C15.0732 5.49103 15.2753 4.99879 15.1459 4.74056C15.0166 4.48234 14.7255 4.25639 14.2404 3.98203L14.237 3.9801C13.7542 3.70709 13.5363 3.58385 13.4399 3.1428C13.3866 2.89886 13.4884 2.5053 13.4884 2.5053C13.4884 2.5053 13.545 2.22287 13.4399 2.08569ZM21.5843 8.86605H20.7865H19.9888C19.9888 8.42548 20.346 8.06833 20.7865 8.06833C21.2271 8.06833 21.5843 8.42548 21.5843 8.86605ZM19.9888 8.8661H21.5843V19.2364H19.9953V19.2365H19.9888V8.8661ZM12.0054 19.2365C12.0054 19.7611 12.1087 20.2805 12.3095 20.7652C12.5102 21.2499 12.8045 21.6903 13.1755 22.0613C13.5464 22.4322 13.9868 22.7265 14.4715 22.9273C14.9562 23.128 15.4757 23.2314 16.0003 23.2314C16.525 23.2314 17.0445 23.128 17.5292 22.9273C18.0138 22.7265 18.4542 22.4322 18.8252 22.0613C19.1962 21.6903 19.4904 21.2499 19.6912 20.7652C19.892 20.2805 19.9953 19.7611 19.9953 19.2365H21.5843V19.2364H21.5844C21.5844 19.9205 21.4587 20.5984 21.2139 21.2364C21.1964 21.2822 21.1781 21.3279 21.1593 21.3733C20.8787 22.0508 20.4674 22.6664 19.9489 23.1849C19.4303 23.7034 18.8148 24.1148 18.1373 24.3954C17.4598 24.676 16.7337 24.8204 16.0003 24.8204C15.267 24.8204 14.5409 24.676 13.8634 24.3954C13.1859 24.1148 12.5704 23.7034 12.0518 23.1849C11.5333 22.6664 11.122 22.0508 10.8414 21.3733C10.8225 21.3279 10.8043 21.2822 10.7867 21.2364C10.542 20.5984 10.4163 19.9206 10.4163 19.2365H12.0054ZM12.0054 19.2365V19.2364H10.4163V14.0513V8.8661H12.0117V19.2365H12.0054ZM19.1909 18.4387C19.1909 20.201 17.7623 21.6296 16 21.6296C14.2377 21.6296 12.8091 20.201 12.8091 18.4387C12.8091 16.6764 14.2377 15.2478 16 15.2478C17.7623 15.2478 19.1909 16.6764 19.1909 18.4387ZM21.9162 27.0541C21.9162 27.0541 21.7474 26.8464 21.2586 26.8465C21.0976 26.8465 20.9808 26.8803 20.8887 26.907C20.7524 26.9465 20.6699 26.9704 20.5776 26.8465C20.3624 26.5575 20.7196 26.2564 21.1184 26.2564C21.5173 26.2564 21.9162 26.8339 21.9162 27.0541ZM11.214 8.86605H12.0117C12.0117 8.42548 11.6546 8.06833 11.214 8.06833C10.7734 8.06833 10.4163 8.42548 10.4163 8.86605H11.214Z" fill="#F8FAFC"/>
<path d="M42.24 25C41.872 25 41.552 24.864 41.28 24.592C41.024 24.32 40.896 24 40.896 23.632V8.848C40.896 8.48 41.024 8.16 41.28 7.888C41.552 7.616 41.872 7.48 42.24 7.48H42.768C43.68 7.48 44.352 7.88 44.784 8.68L50.712 19.384C50.712 19.4 50.72 19.408 50.736 19.408C50.752 19.408 50.76 19.4 50.76 19.384V8.848C50.76 8.48 50.896 8.16 51.168 7.888C51.44 7.616 51.76 7.48 52.128 7.48H52.656C53.024 7.48 53.336 7.616 53.592 7.888C53.864 8.16 54 8.48 54 8.848V23.632C54 24 53.864 24.32 53.592 24.592C53.336 24.864 53.024 25 52.656 25H52.128C51.216 25 50.544 24.6 50.112 23.8L44.184 13.096C44.184 13.08 44.176 13.072 44.16 13.072C44.144 13.072 44.136 13.08 44.136 13.096V23.632C44.136 24 44 24.32 43.728 24.592C43.456 24.864 43.136 25 42.768 25H42.24ZM62.8584 10.456L60.7464 17.992C60.7304 18.04 60.7384 18.088 60.7704 18.136C60.8024 18.184 60.8424 18.208 60.8904 18.208H64.8744C64.9224 18.208 64.9624 18.184 64.9944 18.136C65.0264 18.088 65.0344 18.04 65.0184 17.992L62.9064 10.456C62.9064 10.44 62.8984 10.432 62.8824 10.432C62.8664 10.432 62.8584 10.44 62.8584 10.456ZM56.6424 25C56.3064 25 56.0424 24.864 55.8504 24.592C55.6584 24.32 55.6184 24.024 55.7304 23.704L60.6984 8.776C60.8424 8.392 61.0744 8.08 61.3944 7.84C61.7304 7.6 62.0984 7.48 62.4984 7.48H63.3624C63.7784 7.48 64.1464 7.6 64.4664 7.84C64.8024 8.08 65.0344 8.392 65.1624 8.776L70.1304 23.704C70.2424 24.024 70.2024 24.32 70.0104 24.592C69.8184 24.864 69.5544 25 69.2184 25H68.3544C67.9704 25 67.6104 24.88 67.2744 24.64C66.9544 24.384 66.7384 24.064 66.6264 23.68L65.8584 20.968C65.8424 20.84 65.7544 20.776 65.5944 20.776H60.1704C60.0264 20.776 59.9384 20.84 59.9064 20.968L59.1384 23.68C59.0424 24.064 58.8264 24.384 58.4904 24.64C58.1704 24.88 57.8104 25 57.4104 25H56.6424ZM69.6737 10.264C69.3057 10.264 68.9857 10.136 68.7137 9.88C68.4417 9.608 68.3057 9.288 68.3057 8.92V8.848C68.3057 8.48 68.4417 8.16 68.7137 7.888C68.9857 7.616 69.3057 7.48 69.6737 7.48H79.8977C80.2657 7.48 80.5857 7.616 80.8577 7.888C81.1297 8.16 81.2657 8.48 81.2657 8.848V8.92C81.2657 9.288 81.1297 9.608 80.8577 9.88C80.5857 10.136 80.2657 10.264 79.8977 10.264H76.6817C76.5537 10.264 76.4897 10.336 76.4897 10.48V23.632C76.4897 24 76.3537 24.32 76.0817 24.592C75.8097 24.864 75.4897 25 75.1217 25H74.4497C74.0817 25 73.7617 24.864 73.4897 24.592C73.2177 24.32 73.0817 24 73.0817 23.632V10.48C73.0817 10.336 73.0177 10.264 72.8897 10.264H69.6737ZM86.8202 10.216V15.424C86.8202 15.552 86.8922 15.616 87.0362 15.616H88.2362C91.0842 15.616 92.5082 14.6 92.5082 12.568C92.5082 10.76 91.1882 9.856 88.5482 9.856C88.0682 9.856 87.5642 9.896 87.0362 9.976C86.8922 10.008 86.8202 10.088 86.8202 10.216ZM84.8762 25C84.5082 25 84.1882 24.864 83.9162 24.592C83.6442 24.32 83.5082 24 83.5082 23.632V8.968C83.5082 8.584 83.6362 8.24 83.8922 7.936C84.1482 7.632 84.4682 7.464 84.8522 7.432C86.2122 7.304 87.5242 7.24 88.7882 7.24C91.1402 7.24 92.9002 7.68 94.0682 8.56C95.2362 9.424 95.8202 10.648 95.8202 12.232C95.8202 13.368 95.5082 14.368 94.8842 15.232C94.2762 16.096 93.4522 16.704 92.4122 17.056C92.3962 17.056 92.3882 17.064 92.3882 17.08C92.3882 17.112 92.3962 17.128 92.4122 17.128C93.1802 17.608 93.8362 18.552 94.3802 19.96L95.8202 23.728C95.9322 24.032 95.8922 24.32 95.7002 24.592C95.5242 24.864 95.2762 25 94.9562 25H94.2122C93.7962 25 93.4202 24.888 93.0842 24.664C92.7482 24.424 92.5082 24.112 92.3642 23.728L91.0202 20.032C90.7322 19.264 90.4042 18.76 90.0362 18.52C89.6682 18.28 89.0362 18.16 88.1402 18.16H87.0362C86.8922 18.16 86.8202 18.232 86.8202 18.376V23.632C86.8202 24 86.6842 24.32 86.4122 24.592C86.1562 24.864 85.8442 25 85.4762 25H84.8762ZM110.245 18.76C110.245 23.08 108.085 25.24 103.765 25.24C99.4448 25.24 97.2847 23.08 97.2847 18.76V8.848C97.2847 8.48 97.4207 8.16 97.6927 7.888C97.9647 7.616 98.2847 7.48 98.6527 7.48H99.3248C99.6927 7.48 100.013 7.616 100.285 7.888C100.557 8.16 100.693 8.48 100.693 8.848V18.952C100.693 20.2 100.941 21.104 101.437 21.664C101.949 22.208 102.741 22.48 103.813 22.48C104.885 22.48 105.669 22.208 106.165 21.664C106.677 21.104 106.933 20.2 106.933 18.952V8.848C106.933 8.48 107.069 8.16 107.341 7.888C107.613 7.616 107.933 7.48 108.301 7.48H108.877C109.245 7.48 109.565 7.616 109.837 7.888C110.109 8.16 110.245 8.48 110.245 8.848V18.76ZM114.198 25C113.83 25 113.51 24.864 113.238 24.592C112.966 24.32 112.83 24 112.83 23.632V8.848C112.83 8.48 112.966 8.16 113.238 7.888C113.51 7.616 113.83 7.48 114.198 7.48H114.798C115.214 7.48 115.598 7.592 115.95 7.816C116.302 8.04 116.558 8.336 116.718 8.704L120.918 17.776C120.918 17.792 120.926 17.8 120.942 17.8C120.958 17.8 120.966 17.792 120.966 17.776L125.166 8.704C125.326 8.336 125.582 8.04 125.934 7.816C126.286 7.592 126.67 7.48 127.086 7.48H127.782C128.15 7.48 128.47 7.616 128.742 7.888C129.014 8.16 129.15 8.48 129.15 8.848V23.632C129.15 24 129.014 24.32 128.742 24.592C128.47 24.864 128.15 25 127.782 25H127.254C126.886 25 126.566 24.864 126.294 24.592C126.022 24.32 125.886 24 125.886 23.632V13.192C125.886 13.176 125.878 13.168 125.862 13.168C125.846 13.168 125.838 13.176 125.838 13.192L122.958 19.36C122.782 19.728 122.51 20.032 122.142 20.272C121.79 20.496 121.414 20.608 121.014 20.608H120.87C120.47 20.608 120.086 20.496 119.718 20.272C119.366 20.032 119.102 19.728 118.926 19.36L116.046 13.192C116.046 13.176 116.038 13.168 116.022 13.168C116.006 13.168 115.998 13.176 115.998 13.192V23.632C115.998 24 115.862 24.32 115.59 24.592C115.318 24.864 114.998 25 114.63 25H114.198ZM138.004 10.456L135.892 17.992C135.876 18.04 135.884 18.088 135.916 18.136C135.948 18.184 135.988 18.208 136.036 18.208H140.02C140.068 18.208 140.108 18.184 140.14 18.136C140.172 18.088 140.18 18.04 140.164 17.992L138.052 10.456C138.052 10.44 138.044 10.432 138.028 10.432C138.012 10.432 138.004 10.44 138.004 10.456ZM131.788 25C131.452 25 131.188 24.864 130.996 24.592C130.804 24.32 130.764 24.024 130.876 23.704L135.844 8.776C135.988 8.392 136.22 8.08 136.54 7.84C136.876 7.6 137.244 7.48 137.644 7.48H138.508C138.924 7.48 139.292 7.6 139.612 7.84C139.948 8.08 140.18 8.392 140.308 8.776L145.276 23.704C145.388 24.024 145.348 24.32 145.156 24.592C144.964 24.864 144.7 25 144.364 25H143.5C143.116 25 142.756 24.88 142.42 24.64C142.1 24.384 141.884 24.064 141.772 23.68L141.004 20.968C140.988 20.84 140.9 20.776 140.74 20.776H135.316C135.172 20.776 135.084 20.84 135.052 20.968L134.284 23.68C134.188 24.064 133.972 24.384 133.636 24.64C133.316 24.88 132.956 25 132.556 25H131.788ZM147.246 25C146.942 25 146.71 24.872 146.55 24.616C146.39 24.344 146.382 24.072 146.526 23.8L150.534 16.312C150.598 16.216 150.598 16.096 150.534 15.952L146.646 8.68C146.502 8.408 146.51 8.144 146.67 7.888C146.83 7.616 147.062 7.48 147.366 7.48H148.398C148.814 7.48 149.198 7.592 149.55 7.816C149.902 8.04 150.166 8.336 150.342 8.704L152.862 14.008C152.862 14.024 152.87 14.032 152.886 14.032C152.902 14.032 152.91 14.024 152.91 14.008L155.43 8.704C155.606 8.336 155.87 8.04 156.222 7.816C156.574 7.592 156.958 7.48 157.374 7.48H158.31C158.63 7.48 158.862 7.616 159.006 7.888C159.166 8.144 159.174 8.408 159.03 8.68L155.142 15.952C155.094 16.064 155.094 16.184 155.142 16.312L159.15 23.8C159.294 24.072 159.286 24.344 159.126 24.616C158.982 24.872 158.75 25 158.43 25H157.326C156.91 25 156.518 24.888 156.15 24.664C155.798 24.44 155.542 24.144 155.382 23.776L152.814 18.232C152.814 18.216 152.806 18.208 152.79 18.208C152.774 18.208 152.766 18.216 152.766 18.232L150.198 23.776C150.038 24.144 149.774 24.44 149.406 24.664C149.054 24.888 148.67 25 148.254 25H147.246Z" fill="#F8FAFC"/>
</svg>
