<svg width="306" height="56" viewBox="0 0 306 56" fill="none" xmlns="http://www.w3.org/2000/svg">
<path fill-rule="evenodd" clip-rule="evenodd" d="M55 28C55 42.9117 42.9117 55 28 55C13.0883 55 1 42.9117 1 28C1 13.0883 13.0883 1 28 1C42.9117 1 55 13.0883 55 28ZM56 28C56 43.464 43.464 56 28 56C12.536 56 0 43.464 0 28C0 12.536 12.536 0 28 0C43.464 0 56 12.536 56 28ZM23.7152 3.10798C23.5237 2.85755 22.3304 3.22629 21.918 3.35842C21.8937 3.36618 21.8429 3.37978 21.7676 3.39993C20.5609 3.72282 13.0746 5.72603 8.27682 12.2709C3.49367 18.7958 3.14492 23.2368 2.97614 25.386L2.97614 25.386C2.96506 25.5271 2.95476 25.6583 2.94402 25.7796C2.5021 30.7735 4.16671 37.049 5.69876 39.8922C6.75452 41.8515 9.41105 45.4358 10.9136 46.595C11.4292 46.9927 12.4551 47.1333 13.035 46.8749C14.3903 46.2709 15.6 45.9876 17.587 45.8731C19.1059 45.7856 20.0932 45.9561 21.504 46.1997C21.6379 46.2228 21.7756 46.2466 21.918 46.2709C23.5707 46.5528 24.5864 46.8945 25.8726 47.3272C26.3366 47.4832 26.8358 47.6512 27.4128 47.8324C28.2301 48.0891 28.9229 48.3257 29.5804 48.5503L29.5806 48.5504C30.7907 48.9637 31.8813 49.3362 33.4085 49.718C33.5638 49.7568 33.7151 49.7952 33.8631 49.8326L33.8631 49.8327C35.6183 50.2771 36.913 50.605 38.9916 50.2925C39.7926 50.1721 40.0284 50.0002 40.5155 49.6449C40.6398 49.5542 40.7804 49.4517 40.9509 49.335C41.2308 49.1435 41.7235 48.5248 41.7464 48.3185C41.7955 47.8768 41.7317 47.4494 41.2603 47.0958C40.7889 46.7423 40.7594 46.5066 40.8331 46.2709C40.9131 46.0149 41.2455 46.0057 41.4665 46.0057C41.6875 46.0057 42.3504 46.0646 42.5861 46.6244C42.6883 46.8672 42.7028 47.1783 42.7148 47.4375C42.7305 47.776 42.7421 48.0262 42.9397 47.9208C43.1754 47.7951 43.249 47.6409 43.3079 47.4199C43.3669 47.199 43.4258 46.536 43.2196 46.212C43.0133 45.8879 42.704 45.4165 42.5124 45.1513C42.3209 44.8861 42.1147 44.5326 42.1147 44.0317C42.1147 43.5308 42.4683 43.3835 42.5861 43.3835L42.609 43.3833C42.7258 43.3815 42.8863 43.3791 42.9691 43.7518C43.0145 43.9558 42.9978 44.1172 42.9847 44.2439C42.9723 44.3642 42.9631 44.4533 43.0133 44.5178C43.1164 44.6504 43.3079 44.6946 43.4258 44.4737C43.5436 44.2527 43.632 43.8402 43.5142 43.4277C43.3963 43.0152 43.249 42.8237 42.8955 42.4996C42.5419 42.1756 41.7759 41.9399 41.3634 41.822C41.3099 41.8067 41.2594 41.7929 41.2119 41.7799C40.8928 41.6928 40.7076 41.6422 40.6563 41.4243C40.5974 41.1738 40.6121 41.056 40.7889 40.8055C40.9656 40.5551 41.8201 40.1721 42.8955 40.2458C43.9709 40.3194 44.5306 40.4373 45.1641 40.9676C45.7975 41.4979 46.3721 42.2345 46.652 43.0005C46.9319 43.7665 47.1381 45.2544 47.1381 45.2544C47.1381 45.2544 48.6112 43.8255 50.4674 40.8939C52.3235 37.9624 53.8703 32.0109 53.8703 29.6392C53.8703 29.4594 53.8737 29.2547 53.8775 29.0264C53.9235 26.2426 54.0275 19.9548 48.7586 12.6981C43.0575 4.84629 34.0124 3.07853 33.5116 2.99014C33.0107 2.90176 32.6277 2.9754 32.5246 3.10799C32.4214 3.24058 32.3772 3.41735 32.5246 3.88875C32.5411 3.94184 32.557 3.9912 32.5719 4.03771C32.6895 4.40408 32.7503 4.59334 32.6719 5.03779C32.5835 5.53866 31.6849 6.23103 31.3313 6.48147C30.9778 6.7319 29.9908 7.43901 29.7845 7.9988C29.5783 8.55859 29.814 9.36881 30.1086 10.017C30.4032 10.6652 30.5653 11.166 30.5064 11.8289C30.4474 12.4919 29.7992 12.8601 29.2689 13.0958C28.7386 13.3315 27.9284 13.3021 27.4717 13.2579C27.015 13.2137 26.1901 12.6686 25.9691 12.0057C25.7633 11.3885 26.0302 10.7968 26.3176 10.1593C26.3389 10.1121 26.3603 10.0647 26.3816 10.017C26.6909 9.32462 27.0592 8.42601 26.8235 7.9546C26.5878 7.4832 26.0575 7.07072 25.1736 6.56985L25.1674 6.56634C24.2879 6.06793 23.8909 5.84296 23.7152 5.03779C23.6181 4.59247 23.8036 3.87402 23.8036 3.87402C23.8036 3.87402 23.9067 3.35842 23.7152 3.10798ZM37.7721 15.5156H36.3761H34.9801C34.9801 14.7446 35.6051 14.1196 36.3761 14.1196C37.1471 14.1196 37.7721 14.7446 37.7721 15.5156ZM37.7721 15.5157V33.6637H36.9919H35.7728H34.9919V33.6638H34.9801V15.5157H37.7721ZM21.0095 33.6638H21.0206V15.5157H18.2286V24.5897V33.6637H19.0095H20.2286H21.0095V33.6638ZM21.0095 33.6638C21.0095 34.5819 21.1903 35.4909 21.5417 36.3391C21.893 37.1873 22.408 37.958 23.0572 38.6072C23.7063 39.2564 24.4771 39.7714 25.3253 40.1227C26.1735 40.474 27.0826 40.6549 28.0007 40.6549C28.9188 40.6549 29.8279 40.474 30.6761 40.1227C31.5243 39.7714 32.295 39.2564 32.9442 38.6072C33.5934 37.958 34.1084 37.1873 34.4597 36.3391C34.811 35.4909 34.9919 34.5819 34.9919 33.6638H37.7721V33.6637H37.7728C37.7728 34.3373 37.7031 35.0075 37.5659 35.6637C37.4417 36.2576 37.2622 36.84 37.0289 37.4033C36.5378 38.5889 35.818 39.6662 34.9106 40.5736C34.0032 41.481 32.9259 42.2008 31.7403 42.6919C30.5547 43.183 29.284 43.4358 28.0007 43.4358C26.7174 43.4358 25.4467 43.183 24.2611 42.6919C23.0755 42.2008 21.9982 41.481 21.0908 40.5736C20.1834 39.6662 19.4635 38.5889 18.9725 37.4033C18.7391 36.84 18.5596 36.2576 18.4355 35.6637C18.2983 35.0075 18.2286 34.3374 18.2286 33.6638H21.0095ZM33.5837 32.2677C33.5837 35.3517 31.0836 37.8518 27.9997 37.8518C24.9157 37.8518 22.4156 35.3517 22.4156 32.2677C22.4156 29.1838 24.9157 26.6837 27.9997 26.6837C31.0836 26.6837 33.5837 29.1838 33.5837 32.2677ZM38.3523 47.3448C38.3523 47.3448 38.057 46.9813 37.2015 46.9814C36.9198 46.9814 36.7155 47.0406 36.5542 47.0873C36.3157 47.1563 36.1713 47.1981 36.0098 46.9814C35.6331 46.4757 36.2583 45.9487 36.9563 45.9487C37.6543 45.9487 38.3523 46.9593 38.3523 47.3448ZM19.6246 15.5156H21.0206C21.0206 14.7446 20.3956 14.1196 19.6246 14.1196C18.8536 14.1196 18.2286 14.7446 18.2286 15.5156H19.6246Z" fill="#F8FAFC"/>
<path d="M69.48 46C68.744 46 68.104 45.728 67.56 45.184C67.048 44.64 66.792 44 66.792 43.264V13.696C66.792 12.96 67.048 12.32 67.56 11.776C68.104 11.232 68.744 10.96 69.48 10.96H70.536C72.36 10.96 73.704 11.76 74.568 13.36L86.424 34.768C86.424 34.8 86.44 34.816 86.472 34.816C86.504 34.816 86.52 34.8 86.52 34.768V13.696C86.52 12.96 86.792 12.32 87.336 11.776C87.88 11.232 88.52 10.96 89.256 10.96H90.312C91.048 10.96 91.672 11.232 92.184 11.776C92.728 12.32 93 12.96 93 13.696V43.264C93 44 92.728 44.64 92.184 45.184C91.672 45.728 91.048 46 90.312 46H89.256C87.432 46 86.088 45.2 85.224 43.6L73.368 22.192C73.368 22.16 73.352 22.144 73.32 22.144C73.288 22.144 73.272 22.16 73.272 22.192V43.264C73.272 44 73 44.64 72.456 45.184C71.912 45.728 71.272 46 70.536 46H69.48ZM110.717 16.912L106.493 31.984C106.461 32.08 106.477 32.176 106.541 32.272C106.605 32.368 106.685 32.416 106.781 32.416H114.749C114.845 32.416 114.925 32.368 114.989 32.272C115.053 32.176 115.069 32.08 115.037 31.984L110.813 16.912C110.813 16.88 110.797 16.864 110.765 16.864C110.733 16.864 110.717 16.88 110.717 16.912ZM98.2849 46C97.6129 46 97.0849 45.728 96.7009 45.184C96.3169 44.64 96.2369 44.048 96.4609 43.408L106.397 13.552C106.685 12.784 107.149 12.16 107.789 11.68C108.461 11.2 109.197 10.96 109.997 10.96H111.725C112.557 10.96 113.293 11.2 113.933 11.68C114.605 12.16 115.069 12.784 115.325 13.552L125.261 43.408C125.485 44.048 125.405 44.64 125.021 45.184C124.637 45.728 124.109 46 123.437 46H121.709C120.941 46 120.221 45.76 119.549 45.28C118.909 44.768 118.477 44.128 118.253 43.36L116.717 37.936C116.685 37.68 116.509 37.552 116.189 37.552H105.341C105.053 37.552 104.877 37.68 104.813 37.936L103.277 43.36C103.085 44.128 102.653 44.768 101.981 45.28C101.341 45.76 100.621 46 99.8209 46H98.2849ZM124.347 16.528C123.611 16.528 122.971 16.272 122.427 15.76C121.883 15.216 121.611 14.576 121.611 13.84V13.696C121.611 12.96 121.883 12.32 122.427 11.776C122.971 11.232 123.611 10.96 124.347 10.96H144.795C145.531 10.96 146.171 11.232 146.715 11.776C147.259 12.32 147.531 12.96 147.531 13.696V13.84C147.531 14.576 147.259 15.216 146.715 15.76C146.171 16.272 145.531 16.528 144.795 16.528H138.363C138.107 16.528 137.979 16.672 137.979 16.96V43.264C137.979 44 137.707 44.64 137.163 45.184C136.619 45.728 135.979 46 135.243 46H133.899C133.163 46 132.523 45.728 131.979 45.184C131.435 44.64 131.163 44 131.163 43.264V16.96C131.163 16.672 131.035 16.528 130.779 16.528H124.347ZM158.64 16.432V26.848C158.64 27.104 158.784 27.232 159.072 27.232H161.472C167.168 27.232 170.016 25.2 170.016 21.136C170.016 17.52 167.376 15.712 162.096 15.712C161.136 15.712 160.128 15.792 159.072 15.952C158.784 16.016 158.64 16.176 158.64 16.432ZM154.752 46C154.016 46 153.376 45.728 152.832 45.184C152.288 44.64 152.016 44 152.016 43.264V13.936C152.016 13.168 152.272 12.48 152.784 11.872C153.296 11.264 153.936 10.928 154.704 10.864C157.424 10.608 160.048 10.48 162.576 10.48C167.28 10.48 170.8 11.36 173.136 13.12C175.472 14.848 176.64 17.296 176.64 20.464C176.64 22.736 176.016 24.736 174.768 26.464C173.552 28.192 171.904 29.408 169.824 30.112C169.792 30.112 169.776 30.128 169.776 30.16C169.776 30.224 169.792 30.256 169.824 30.256C171.36 31.216 172.672 33.104 173.76 35.92L176.64 43.456C176.864 44.064 176.784 44.64 176.4 45.184C176.048 45.728 175.552 46 174.912 46H173.424C172.592 46 171.84 45.776 171.168 45.328C170.496 44.848 170.016 44.224 169.728 43.456L167.04 36.064C166.464 34.528 165.808 33.52 165.072 33.04C164.336 32.56 163.072 32.32 161.28 32.32H159.072C158.784 32.32 158.64 32.464 158.64 32.752V43.264C158.64 44 158.368 44.64 157.824 45.184C157.312 45.728 156.688 46 155.952 46H154.752ZM205.49 33.52C205.49 42.16 201.17 46.48 192.53 46.48C183.89 46.48 179.569 42.16 179.569 33.52V13.696C179.569 12.96 179.841 12.32 180.385 11.776C180.929 11.232 181.569 10.96 182.305 10.96H183.65C184.385 10.96 185.025 11.232 185.569 11.776C186.114 12.32 186.386 12.96 186.386 13.696V33.904C186.386 36.4 186.882 38.208 187.874 39.328C188.898 40.416 190.482 40.96 192.626 40.96C194.77 40.96 196.338 40.416 197.33 39.328C198.354 38.208 198.866 36.4 198.866 33.904V13.696C198.866 12.96 199.138 12.32 199.682 11.776C200.226 11.232 200.865 10.96 201.601 10.96H202.754C203.49 10.96 204.13 11.232 204.674 11.776C205.218 12.32 205.49 12.96 205.49 13.696V33.52ZM213.397 46C212.661 46 212.021 45.728 211.477 45.184C210.933 44.64 210.661 44 210.661 43.264V13.696C210.661 12.96 210.933 12.32 211.477 11.776C212.021 11.232 212.661 10.96 213.397 10.96H214.597C215.429 10.96 216.197 11.184 216.901 11.632C217.605 12.08 218.117 12.672 218.437 13.408L226.837 31.552C226.837 31.584 226.853 31.6 226.885 31.6C226.917 31.6 226.933 31.584 226.933 31.552L235.333 13.408C235.653 12.672 236.165 12.08 236.869 11.632C237.573 11.184 238.341 10.96 239.173 10.96H240.565C241.301 10.96 241.941 11.232 242.485 11.776C243.029 12.32 243.301 12.96 243.301 13.696V43.264C243.301 44 243.029 44.64 242.485 45.184C241.941 45.728 241.301 46 240.565 46H239.509C238.773 46 238.133 45.728 237.589 45.184C237.045 44.64 236.773 44 236.773 43.264V22.384C236.773 22.352 236.757 22.336 236.725 22.336C236.693 22.336 236.677 22.352 236.677 22.384L230.917 34.72C230.565 35.456 230.021 36.064 229.285 36.544C228.581 36.992 227.829 37.216 227.029 37.216H226.741C225.941 37.216 225.173 36.992 224.437 36.544C223.733 36.064 223.205 35.456 222.853 34.72L217.093 22.384C217.093 22.352 217.077 22.336 217.045 22.336C217.013 22.336 216.997 22.352 216.997 22.384V43.264C216.997 44 216.725 44.64 216.181 45.184C215.637 45.728 214.997 46 214.261 46H213.397ZM261.007 16.912L256.783 31.984C256.751 32.08 256.767 32.176 256.831 32.272C256.895 32.368 256.975 32.416 257.071 32.416H265.039C265.135 32.416 265.215 32.368 265.279 32.272C265.343 32.176 265.359 32.08 265.327 31.984L261.103 16.912C261.103 16.88 261.087 16.864 261.055 16.864C261.023 16.864 261.007 16.88 261.007 16.912ZM248.575 46C247.903 46 247.375 45.728 246.991 45.184C246.607 44.64 246.527 44.048 246.751 43.408L256.687 13.552C256.975 12.784 257.439 12.16 258.079 11.68C258.751 11.2 259.487 10.96 260.287 10.96H262.015C262.847 10.96 263.583 11.2 264.223 11.68C264.895 12.16 265.359 12.784 265.615 13.552L275.551 43.408C275.775 44.048 275.695 44.64 275.311 45.184C274.927 45.728 274.399 46 273.727 46H271.999C271.231 46 270.511 45.76 269.839 45.28C269.199 44.768 268.767 44.128 268.543 43.36L267.007 37.936C266.975 37.68 266.799 37.552 266.479 37.552H255.631C255.343 37.552 255.167 37.68 255.103 37.936L253.567 43.36C253.375 44.128 252.943 44.768 252.271 45.28C251.631 45.76 250.911 46 250.111 46H248.575ZM279.492 46C278.884 46 278.42 45.744 278.1 45.232C277.78 44.688 277.764 44.144 278.052 43.6L286.068 28.624C286.196 28.432 286.196 28.192 286.068 27.904L278.292 13.36C278.004 12.816 278.02 12.288 278.34 11.776C278.66 11.232 279.124 10.96 279.732 10.96H281.796C282.628 10.96 283.396 11.184 284.1 11.632C284.804 12.08 285.332 12.672 285.684 13.408L290.724 24.016C290.724 24.048 290.74 24.064 290.772 24.064C290.804 24.064 290.82 24.048 290.82 24.016L295.86 13.408C296.212 12.672 296.74 12.08 297.444 11.632C298.148 11.184 298.916 10.96 299.748 10.96H301.62C302.26 10.96 302.724 11.232 303.012 11.776C303.332 12.288 303.348 12.816 303.06 13.36L295.284 27.904C295.188 28.128 295.188 28.368 295.284 28.624L303.3 43.6C303.588 44.144 303.572 44.688 303.252 45.232C302.964 45.744 302.5 46 301.86 46H299.652C298.82 46 298.036 45.776 297.3 45.328C296.596 44.88 296.084 44.288 295.764 43.552L290.628 32.464C290.628 32.432 290.612 32.416 290.58 32.416C290.548 32.416 290.532 32.432 290.532 32.464L285.396 43.552C285.076 44.288 284.548 44.88 283.812 45.328C283.108 45.776 282.34 46 281.508 46H279.492Z" fill="#F8FAFC"/>
</svg>
