<svg width="24" height="24" viewBox="0 0 24 24" fill="none" xmlns="http://www.w3.org/2000/svg">
<path fill-rule="evenodd" clip-rule="evenodd" d="M23 12C23 18.0751 18.0751 23 12 23C5.92487 23 1 18.0751 1 12C1 5.92487 5.92487 1 12 1C18.0751 1 23 5.92487 23 12ZM24 12C24 18.6274 18.6274 24 12 24C5.37258 24 0 18.6274 0 12C0 5.37258 5.37258 0 12 0C18.6274 0 24 5.37258 24 12ZM10.1714 2.06262C10.0963 1.96237 9.62851 2.10997 9.4668 2.16287C9.45731 2.16597 9.43737 2.17142 9.40786 2.17948C8.93478 2.30874 5.9999 3.11062 4.11901 5.73053C2.24385 8.34244 2.10713 10.1202 2.04096 10.9805C2.03661 11.037 2.03258 11.0895 2.02837 11.1381C1.85512 13.1371 2.5077 15.6492 3.10832 16.7873C3.52221 17.5716 4.56366 19.0065 5.15273 19.4705C5.35487 19.6297 5.75703 19.686 5.98436 19.5825C6.51568 19.3407 6.98995 19.2273 7.7689 19.1815C8.36436 19.1465 8.75143 19.2147 9.3045 19.3122L9.4668 19.3407C10.1147 19.4536 10.5129 19.5903 11.0171 19.7635L11.0172 19.7636C11.1991 19.826 11.3948 19.8933 11.621 19.9658C11.9414 20.0686 12.213 20.1633 12.4708 20.2532C12.9452 20.4187 13.3728 20.5678 13.9715 20.7206C14.0324 20.7362 14.0917 20.7515 14.1497 20.7665C14.8378 20.9444 15.3454 21.0757 16.1603 20.9506C16.4743 20.9024 16.5667 20.8336 16.7577 20.6913L16.7577 20.6913C16.8064 20.6551 16.8615 20.614 16.9284 20.5673C17.0381 20.4906 17.2312 20.243 17.2402 20.1604C17.2595 19.9836 17.2345 19.8125 17.0497 19.671C16.8648 19.5294 16.8533 19.4351 16.8822 19.3407C16.9135 19.2383 17.0439 19.2346 17.1305 19.2346C17.2171 19.2346 17.477 19.2582 17.5694 19.4823C17.6095 19.5794 17.6151 19.704 17.6199 19.8077C17.626 19.9432 17.6306 20.0434 17.708 20.0012C17.8004 19.9509 17.8293 19.8891 17.8524 19.8007C17.8755 19.7122 17.8986 19.4469 17.8178 19.3171C17.7369 19.1874 17.6156 18.9987 17.5405 18.8926C17.4655 18.7864 17.3846 18.6449 17.3846 18.4444C17.3846 18.2439 17.5232 18.1849 17.5694 18.1849L17.5784 18.1848C17.6242 18.1841 17.6871 18.1831 17.7196 18.3323C17.7373 18.414 17.7308 18.4786 17.7257 18.5293C17.7208 18.5775 17.7172 18.6131 17.7369 18.639C17.7773 18.6921 17.8524 18.7098 17.8986 18.6213C17.9448 18.5328 17.9795 18.3677 17.9333 18.2026C17.8871 18.0375 17.8293 17.9608 17.6907 17.8311C17.5521 17.7014 17.2518 17.607 17.0901 17.5598C17.0691 17.5537 17.0493 17.5482 17.0307 17.543C16.9056 17.5081 16.833 17.4879 16.8129 17.4006C16.7898 17.3004 16.7955 17.2532 16.8648 17.153C16.9341 17.0527 17.2691 16.8994 17.6907 16.9289C18.1123 16.9584 18.3317 17.0055 18.5801 17.2178C18.8284 17.4301 19.0537 17.725 19.1634 18.0316C19.2731 18.3382 19.354 18.9338 19.354 18.9338C19.354 18.9338 19.9315 18.3618 20.6592 17.1883C21.3868 16.0148 21.9932 13.6325 21.9932 12.6831C21.9932 12.6111 21.9945 12.5292 21.996 12.4378V12.4378C22.0141 11.3234 22.0548 8.80639 19.9892 5.90154C17.7542 2.75846 14.2083 2.05083 14.0119 2.01544C13.8155 1.98006 13.6654 2.00955 13.6249 2.06262C13.5845 2.11569 13.5672 2.18646 13.6249 2.37516C13.6315 2.39641 13.6377 2.41617 13.6435 2.43479C13.6896 2.58145 13.7134 2.65721 13.6827 2.83512C13.648 3.03562 13.2958 3.31277 13.1572 3.41302C13.0186 3.51327 12.6316 3.79633 12.5508 4.02041C12.4699 4.2445 12.5623 4.56883 12.6778 4.82829C12.7933 5.08776 12.8568 5.28826 12.8337 5.55362C12.8106 5.81898 12.5565 5.96641 12.3486 6.06076C12.1407 6.15511 11.8231 6.14332 11.6441 6.12563C11.465 6.10794 11.1416 5.88975 11.055 5.62438C10.9743 5.3773 11.0789 5.14044 11.1916 4.88525L11.2167 4.82829C11.338 4.55114 11.4823 4.19142 11.3899 4.00272C11.2975 3.81402 11.0896 3.6489 10.7431 3.4484L10.7407 3.447C10.3959 3.24749 10.2402 3.15743 10.1714 2.83512C10.1333 2.65686 10.206 2.36926 10.206 2.36926C10.206 2.36926 10.2465 2.16287 10.1714 2.06262ZM16.1882 6.64954H15.5899H14.9916C14.9916 6.31911 15.2595 6.05125 15.5899 6.05125C15.9203 6.05125 16.1882 6.31911 16.1882 6.64954ZM16.1882 6.64957V14.4273H14.9965V14.4273H14.9916V6.64957H16.1882ZM9.00403 14.4273H9.0088V6.64957H7.81222V10.5385V14.4273H9.00403V14.4273ZM9.00403 14.4273C9.00404 14.8208 9.08154 15.2104 9.23211 15.5739C9.38268 15.9374 9.60338 16.2677 9.88161 16.5459C10.1598 16.8242 10.4901 17.0449 10.8537 17.1954C11.2172 17.346 11.6068 17.4235 12.0003 17.4235C12.3937 17.4235 12.7833 17.346 13.1469 17.1954C13.5104 17.0449 13.8407 16.8242 14.1189 16.5459C14.3971 16.2677 14.6178 15.9374 14.7684 15.5739C14.919 15.2104 14.9965 14.8208 14.9965 14.4273H16.1882V14.4273H16.1883C16.1883 14.9773 16.08 15.5219 15.8695 16.03C15.8132 16.1659 15.7499 16.2985 15.6799 16.4273C15.4882 16.7799 15.2465 17.1038 14.9616 17.3887C14.5728 17.7776 14.1111 18.0861 13.6029 18.2965C13.0948 18.507 12.5502 18.6153 12.0003 18.6153C11.4503 18.6153 10.9057 18.507 10.3976 18.2965C9.88945 18.0861 9.42776 17.7776 9.03887 17.3887C8.75401 17.1038 8.51229 16.7799 8.32063 16.4273C8.25064 16.2985 8.18732 16.1659 8.13102 16.03C7.92056 15.5219 7.81223 14.9773 7.81222 14.4273H9.00403ZM14.3931 13.829C14.3931 15.1507 13.3217 16.2222 12 16.2222C10.6783 16.2222 9.60682 15.1507 9.60682 13.829C9.60682 12.5073 10.6783 11.4359 12 11.4359C13.3217 11.4359 14.3931 12.5073 14.3931 13.829ZM16.4371 20.2906C16.4371 20.2906 16.3106 20.1348 15.9439 20.1349C15.8232 20.1349 15.7356 20.1602 15.6665 20.1802C15.5643 20.2098 15.5024 20.2278 15.4332 20.1349C15.2718 19.9182 15.5397 19.6923 15.8388 19.6923C16.138 19.6923 16.4371 20.1254 16.4371 20.2906ZM8.41051 6.64954H9.0088C9.0088 6.31911 8.74094 6.05125 8.41051 6.05125C8.08009 6.05125 7.81222 6.31911 7.81222 6.64954H8.41051Z" fill="#F8FAFC"/>
</svg>
